<svg width="75" height="75" viewBox="0 0 75 75" fill="none" xmlns="http://www.w3.org/2000/svg">
<g style="mix-blend-mode:luminosity">
<path d="M45.6683 18.0005H57.8006L45.2061 55.3166C44.9407 56.1028 44.2034 56.6324 43.3735 56.6324H33.9316C33.3095 56.6324 32.7255 56.3329 32.3626 55.8276C31.9997 55.3223 31.9025 54.6732 32.1013 54.0837L43.8353 19.3163C44.1006 18.5297 44.8382 18 45.6683 18V18.0005Z" fill="url(#paint0_linear_327_744)"/>
<path d="M63.2984 43.0294H44.0595C43.6935 43.029 43.3645 43.2527 43.2302 43.5932C43.0959 43.9337 43.1837 44.3217 43.4514 44.5712L55.8139 56.1099C56.1739 56.4456 56.6478 56.6322 57.14 56.6322H68.0338L63.2984 43.0294Z" fill="#0078D4"/>
<path d="M45.6686 18.0005C44.8285 17.9973 44.0841 18.5409 43.8313 19.342L32.1161 54.0521C31.9038 54.6439 31.9932 55.302 32.3557 55.8157C32.7182 56.3294 33.3083 56.6342 33.937 56.6325H43.6226C44.357 56.5013 44.964 55.985 45.2115 55.2812L47.5477 48.396L55.8928 56.1796C56.2425 56.4688 56.6812 56.6288 57.135 56.6325H67.9883L63.2282 43.0297L49.3519 43.0329L57.8447 18.0005H45.6686Z" fill="url(#paint1_linear_327_744)"/>
<path d="M61.1641 19.3145C60.8991 18.5291 60.1627 18.0005 59.3338 18.0005H45.8126C46.6413 18.0005 47.3777 18.5292 47.6428 19.3145L59.3772 54.0833C59.5762 54.6728 59.479 55.3221 59.1162 55.8276C58.7533 56.3331 58.1692 56.6329 57.5469 56.6329H71.0687C71.6908 56.6329 72.2748 56.3329 72.6376 55.8274C73.0003 55.322 73.0974 54.6727 72.8985 54.0833L61.1641 19.3145Z" fill="url(#paint2_linear_327_744)"/>
</g>
<defs>
<linearGradient id="paint0_linear_327_744" x1="1553.51" y1="304.323" x2="365.3" y2="3814.59" gradientUnits="userSpaceOnUse">
<stop stop-color="#114A8B"/>
<stop offset="1" stop-color="#0669BC"/>
</linearGradient>
<linearGradient id="paint1_linear_327_744" x1="2181.02" y1="2038.95" x2="1924.18" y2="2125.79" gradientUnits="userSpaceOnUse">
<stop stop-opacity="0.3"/>
<stop offset="0.071" stop-opacity="0.2"/>
<stop offset="0.321" stop-opacity="0.1"/>
<stop offset="0.623" stop-opacity="0.05"/>
<stop offset="1" stop-opacity="0"/>
</linearGradient>
<linearGradient id="paint2_linear_327_744" x1="1059.33" y1="195.712" x2="2356.18" y2="3650.78" gradientUnits="userSpaceOnUse">
<stop stop-color="#3CCBF4"/>
<stop offset="1" stop-color="#2892DF"/>
</linearGradient>
</defs>
</svg>
