<svg width="75" height="75" viewBox="0 0 75 75" fill="none" xmlns="http://www.w3.org/2000/svg">
<path d="M72.9979 28.5476C72.9976 27.7728 72.8319 27.0882 72.4968 26.5006C72.1676 25.9227 71.6746 25.4384 71.0134 25.0555C65.5552 21.9083 60.0916 18.7707 54.6352 15.6202C53.1641 14.771 51.7379 14.8019 50.2777 15.6634C48.1052 16.9446 37.228 23.1764 33.9868 25.0537C32.6519 25.8265 32.0024 27.0091 32.0021 28.5462C32 34.8755 32.0021 41.2046 32 47.534C32 48.2918 32.159 48.9632 32.4793 49.542C32.8087 50.1373 33.3085 50.6349 33.985 51.0265C37.2264 52.9038 48.105 59.1351 50.2771 60.4167C51.7379 61.2786 53.1641 61.3094 54.6356 60.4598C60.0923 57.3092 65.5561 54.1718 71.0151 51.0246C71.6916 50.6331 72.1915 50.1352 72.5208 49.5404C72.8407 48.9616 73 48.2902 73 47.5323C73 47.5323 73 34.8771 72.9979 28.5476Z" fill="#A6A6A6"/>
<path d="M52.5629 37.9786L32.4795 49.5421C32.8089 50.1374 33.3087 50.635 33.9852 51.0266C37.2266 52.904 48.1052 59.1352 50.2773 60.4168C51.738 61.2787 53.1643 61.3095 54.6358 60.46C60.0925 57.3094 65.5563 54.1719 71.0153 51.0247C71.6918 50.6333 72.1917 50.1353 72.521 49.5405L52.5629 37.9786Z" fill="#424242"/>
<path d="M72.9971 28.5476C72.9968 27.7728 72.8311 27.0881 72.496 26.5005L52.562 37.9784L72.5201 49.5403C72.8399 48.9615 72.9989 48.2902 72.9992 47.5322C72.9992 47.5322 72.9992 34.877 72.9971 28.5476Z" fill="#5B5B5B"/>
<path d="M64.3868 33.6555V35.817H66.5482V33.6555H67.6289V35.817H69.7903V36.8977H67.6289V39.0591H69.7903V40.1398H67.6289V42.3012H66.5482V40.1398H64.3868V42.3012H63.306V40.1398H61.1446V39.0591H63.306V36.8977H61.1446V35.817H63.306V33.6555H64.3868ZM66.5482 36.8977H64.3868V39.0591H66.5482V36.8977Z" fill="white"/>
<path d="M52.6069 22.8004C58.2446 22.8004 63.1668 25.8622 65.8032 30.4132L65.7775 30.3694L59.1444 34.1887C57.8376 31.976 55.4418 30.4827 52.6935 30.452L52.6069 30.4515C48.4159 30.4515 45.0182 33.849 45.0182 38.04C45.0182 39.4106 45.3836 40.6953 46.019 41.8049C47.3271 44.0885 49.7861 45.6287 52.6069 45.6287C55.4452 45.6287 57.9182 44.069 59.2196 41.7609L59.188 41.8163L65.8111 45.6532C63.2036 50.1657 58.3489 53.218 52.7767 53.2789L52.6069 53.2798C46.9515 53.2798 42.0153 50.1992 39.3855 45.6241C38.1017 43.3906 37.3671 40.8012 37.3671 38.04C37.3671 29.6235 44.1901 22.8004 52.6069 22.8004Z" fill="white"/>
</svg>
