<svg width="75" height="75" viewBox="0 0 75 75" fill="none" xmlns="http://www.w3.org/2000/svg">
<path d="M72.9379 46.4493C72.9558 46.2751 72.9687 46.0992 72.9787 45.9224C72.9908 45.7132 60.3868 33.7543 60.3868 33.7543H60.0854C60.0854 33.7543 72.8608 47.23 72.9379 46.4493Z" fill="url(#paint0_linear_513_968)"/>
<path d="M46.0467 42.3009C46.03 42.3375 46.0134 42.3742 45.9963 42.4109C45.9784 42.4492 45.96 42.4876 45.9417 42.5255C45.5399 43.3633 51.5664 49.2548 52.0512 48.5391C52.0732 48.5074 52.0953 48.4741 52.1174 48.4424C52.142 48.4049 52.1662 48.3691 52.1904 48.3316C52.578 47.743 46.2189 41.9182 46.0467 42.3009Z" fill="url(#paint1_linear_513_968)"/>
<path d="M54.5628 50.5856C54.5457 50.6231 54.4244 50.8282 54.3136 50.9366C54.2948 50.9741 60.1967 56.8272 60.1967 56.8272H60.7281C60.7285 56.8272 55.188 50.8332 54.5628 50.5856Z" fill="url(#paint2_linear_513_968)"/>
<path d="M72.9871 45.8162C72.7112 51.9348 67.6491 56.8272 61.4646 56.8272H60.6285L54.4523 50.7428C54.9604 50.0263 55.4327 49.2839 55.8532 48.5099H61.4646C63.2393 48.5099 64.6836 47.0666 64.6836 45.291C64.6836 43.5162 63.2393 42.072 61.4646 42.072H58.144C58.397 40.7345 58.5353 39.3553 58.5353 37.9445C58.5353 36.5119 58.3944 35.1131 58.1323 33.7543H60.195L72.9508 46.323C72.9658 46.1546 72.9779 45.9862 72.9871 45.8162ZM36.3553 19H33V27.3173H36.3553C42.2155 27.3173 46.9837 32.0842 46.9837 37.9445C46.9837 39.5387 46.6281 41.0521 45.9963 42.4109L52.1174 48.4424C54.1272 45.4352 55.3022 41.8249 55.3022 37.9445C55.3022 27.4986 46.8024 19 36.3553 19Z" fill="#5E5E5E"/>
<path d="M61.4646 19H47.8777C51.1963 21.0261 53.9443 23.8991 55.8165 27.3173H61.4646C63.2394 27.3173 64.6836 28.7607 64.6836 30.5362C64.6836 32.3114 63.2394 33.7548 61.4646 33.7548H60.1955L72.9512 46.3234C72.9812 45.9825 73 45.6394 73 45.291C73 42.4872 71.9938 39.9151 70.3233 37.9132C71.9938 35.9121 73 33.3396 73 30.5362C73 24.1754 67.8258 19 61.4646 19Z" fill="#424242"/>
<path d="M60.6285 56.8272H47.9748C50.5219 55.2542 52.7239 53.1777 54.4523 50.7428L60.6285 56.8272ZM52.1174 48.4424L45.9967 42.4109C44.3057 46.045 40.6208 48.5725 36.3553 48.5725H33V56.8889H36.3553C42.9215 56.8889 48.7172 53.5303 52.1174 48.4424Z" fill="#A5A5A5"/>
<defs>
<linearGradient id="paint0_linear_513_968" x1="-1005.38" y1="-1147.62" x2="1364.92" y2="1414.02" gradientUnits="userSpaceOnUse">
<stop stop-color="#F9A03C"/>
<stop offset="1" stop-color="#F7974E"/>
</linearGradient>
<linearGradient id="paint1_linear_513_968" x1="-1581.39" y1="-1530.32" x2="670.385" y2="654.888" gradientUnits="userSpaceOnUse">
<stop stop-color="#F9A03C"/>
<stop offset="1" stop-color="#F7974E"/>
</linearGradient>
<linearGradient id="paint2_linear_513_968" x1="-1377.19" y1="-1584.51" x2="594.527" y2="738.718" gradientUnits="userSpaceOnUse">
<stop stop-color="#F9A03C"/>
<stop offset="1" stop-color="#F7974E"/>
</linearGradient>
</defs>
</svg>
