<svg width="75" height="75" viewBox="0 0 75 75" fill="none" xmlns="http://www.w3.org/2000/svg">
<path d="M49.8143 49.0082C51.2316 50.7808 52.6751 53.0021 53.4305 54.3484C54.3505 56.0985 54.7319 57.2802 55.4163 59.3819C55.8164 60.5412 56.1978 60.8927 56.9981 60.8927C57.8732 60.8927 58.2733 60.3019 58.58 59.3819C59.2195 57.3962 59.7131 55.8854 60.4947 54.4419C62.0317 51.6783 63.9688 49.2176 65.861 46.8542C66.3809 46.1922 69.6904 42.2918 71.1788 39.1954C71.1788 39.1954 73 35.8148 73 31.0879C73 26.6676 71.205 23.5974 71.205 23.5974L66.0069 24.9923L62.8394 33.313L62.0578 34.4461L61.8933 34.6592L61.6801 34.921L61.3249 35.3473L60.8051 35.8671L57.9929 38.1595L50.9736 42.2245L49.8143 49.0082Z" fill="#424242"/>
<path d="M42.5594 38.6307C44.2834 42.5536 47.5705 45.9828 49.8143 49.0082L61.7026 34.921C61.7026 34.921 60.0235 37.1199 56.9981 37.1199C53.6175 37.1199 50.8764 34.4274 50.8764 31.0206C50.8764 28.6796 52.2712 27.0753 52.2712 27.0753L44.2123 29.2255L42.5594 38.6307Z" fill="#A5A5A5"/>
<path d="M61.8447 15.7292C65.79 17.0045 69.1706 19.6746 71.205 23.6236L61.7026 34.9435C61.7026 34.9435 63.0975 33.313 63.0975 30.9981C63.0975 27.524 60.1656 24.8988 56.9981 24.8988C53.9952 24.8988 52.2712 27.0715 52.2712 27.0715V19.9363L61.8447 15.7292Z" fill="#5E5E5E"/>
<path d="M44.7321 20.7179C47.0956 17.9057 51.2316 15 56.9495 15C59.7131 15 61.8185 15.733 61.8185 15.733L52.2712 27.079H45.51L44.7321 20.7179Z" fill="#A5A5A5"/>
<path d="M42.5594 38.6307C42.5594 38.6307 41 35.5343 41 31.0692C41 26.8397 42.6529 23.1524 44.7583 20.7404L52.2974 27.0977L42.5594 38.6307Z" fill="#5E5E5E"/>
</svg>
