<svg width="75" height="75" viewBox="0 0 75 75" fill="none" xmlns="http://www.w3.org/2000/svg">
<path d="M66.4072 20.0155C64.5196 17.7745 62.8937 15.4985 62.5618 15.0264C62.5267 14.9912 62.4743 14.9912 62.4396 15.0264C62.1077 15.499 60.4818 17.775 58.5942 20.0155C42.3918 40.6904 61.1461 54.6432 61.1461 54.6432L61.3034 54.7481C61.4434 56.9014 61.7926 60 61.7926 60H62.4916H63.1905C63.1905 60 63.5402 56.9188 63.6797 54.7481L63.837 54.6259C63.8544 54.6432 82.6087 40.6904 66.4063 20.0155H66.4072ZM62.4921 54.3279C62.4921 54.3279 61.6531 53.6103 61.4256 53.2426V53.2075L62.4396 30.6944C62.4396 30.6246 62.5445 30.6246 62.5445 30.6944L63.558 53.2075V53.2426C63.331 53.6098 62.4921 54.3279 62.4921 54.3279Z" fill="#424242"/>
</svg>
