<svg width="75" height="75" viewBox="0 0 75 75" fill="none" xmlns="http://www.w3.org/2000/svg">
<path d="M55.3189 17C55.008 17 54.7192 17.0666 54.4527 17.1555C55.0191 17.533 55.33 18.0328 55.4855 18.5991C55.4966 18.6768 55.5188 18.7324 55.5299 18.8101C55.541 18.8767 55.5521 18.9433 55.5521 19.01C55.5965 19.9872 55.2967 20.1093 55.0857 20.6868C54.7637 21.4308 54.8525 22.2304 55.2412 22.8745C55.2745 22.9522 55.3189 23.041 55.3744 23.1188C54.9524 20.3092 57.2956 19.8873 57.7286 19.01C57.762 18.2437 57.129 17.7329 56.6293 17.3776C56.1518 17.0888 55.7187 17 55.3189 17ZM58.8502 17.633C58.8058 17.8884 58.8391 17.8218 58.828 17.955C58.8169 18.0439 58.8169 18.1549 58.8058 18.2437C58.7836 18.3326 58.7614 18.4214 58.7281 18.5103C58.7059 18.5991 58.6726 18.6879 58.6393 18.7768C58.5948 18.8656 58.5615 18.9433 58.5171 19.0322C58.4838 19.0766 58.4616 19.121 58.4283 19.1654C58.4061 19.1988 58.3838 19.2321 58.3617 19.2654C58.3061 19.3431 58.2506 19.4209 58.1951 19.4875C58.1284 19.5541 58.0729 19.6318 57.9952 19.6874C57.9952 19.6985 57.9952 19.6985 57.9952 19.6985C57.9286 19.754 57.8619 19.8206 57.7842 19.8762C57.551 20.0538 57.2845 20.1871 57.0402 20.3537C56.9624 20.4092 56.8847 20.4536 56.8181 20.5202C56.7403 20.5758 56.6737 20.6313 56.6071 20.6979C56.5294 20.7645 56.4738 20.8312 56.4072 20.9089C56.3517 20.9755 56.285 21.0533 56.2406 21.131C56.1851 21.2087 56.1296 21.2865 56.0852 21.3642C56.0407 21.453 56.0074 21.5308 55.963 21.6196C55.9297 21.7085 55.8964 21.7862 55.8742 21.875C55.8409 21.975 55.8186 22.0638 55.7964 22.1527C55.7853 22.1971 55.7853 22.2526 55.7742 22.297C55.7631 22.3414 55.7631 22.3858 55.7521 22.4303C55.7521 22.5191 55.7409 22.6191 55.7409 22.7079C55.7409 22.7745 55.7409 22.8411 55.7521 22.9078C55.7521 22.9966 55.7632 23.0855 55.7854 23.1854C55.7965 23.2742 55.8187 23.3631 55.8409 23.4519C55.8742 23.5408 55.8964 23.6296 55.9297 23.7184C55.9519 23.774 55.9853 23.8295 56.0075 23.8739L53.4534 22.8856C53.0203 22.7634 52.5983 22.6524 52.1652 22.5524C51.932 22.4969 51.6988 22.4414 51.4656 22.3859C50.7993 22.2526 50.1219 22.1527 49.4445 22.086C49.4223 22.086 49.4112 22.0749 49.389 22.0749C48.7227 22.0083 48.0675 21.975 47.4012 21.975C46.9126 21.975 46.424 21.9972 45.9465 22.0305C45.2691 22.0749 44.5917 22.1637 43.9143 22.2748C43.7477 22.297 43.5812 22.3303 43.4146 22.3636C43.0703 22.4303 42.7372 22.508 42.4152 22.5857C42.2486 22.6302 42.082 22.6746 41.9154 22.719C41.7489 22.7856 41.5934 22.8633 41.4379 22.93C41.3158 22.9855 41.1936 23.041 41.0715 23.0965C41.0493 23.1077 41.027 23.1077 41.016 23.1187C40.9049 23.1743 40.805 23.2187 40.705 23.2742C40.6717 23.2853 40.6495 23.2964 40.6273 23.3075C40.5051 23.363 40.383 23.4297 40.283 23.4852C40.2053 23.5185 40.1276 23.5629 40.0609 23.5962C40.0276 23.6184 39.9832 23.6407 39.961 23.6518C39.8611 23.7073 39.7611 23.7628 39.6723 23.8183C39.5723 23.8739 39.4835 23.9294 39.4058 23.9849C39.328 24.0404 39.2503 24.0849 39.1837 24.1404C39.1725 24.1515 39.1615 24.1515 39.1503 24.1626C39.0837 24.207 39.006 24.2625 38.9394 24.318C38.9394 24.318 38.9282 24.3292 38.9172 24.3402C38.8616 24.3847 38.8061 24.4291 38.7506 24.4735C38.7284 24.4846 38.7062 24.5068 38.684 24.5179C38.6284 24.5624 38.5729 24.6179 38.5174 24.6623C38.5063 24.6845 38.4841 24.6956 38.473 24.7067C38.4063 24.7734 38.3397 24.8289 38.2731 24.8955C38.2619 24.8955 38.2619 24.9066 38.2509 24.9177C38.1842 24.9732 38.1176 25.0399 38.051 25.1065C38.0399 25.1176 38.0399 25.1287 38.0288 25.1287C37.9733 25.1842 37.9178 25.2397 37.8622 25.3064C37.84 25.3285 37.8067 25.3508 37.7845 25.373C37.729 25.4396 37.6623 25.5062 37.5957 25.5729C37.5846 25.5951 37.5624 25.6062 37.5513 25.6284C37.4624 25.7172 37.3847 25.8061 37.2959 25.8949C37.2847 25.906 37.2737 25.9171 37.2625 25.9282C37.0849 26.117 36.8961 26.3058 36.6962 26.4724C36.4963 26.65 36.2853 26.8166 36.0743 26.961C35.8522 27.1164 35.6412 27.2497 35.408 27.383C35.1859 27.5051 34.9527 27.6162 34.7084 27.7161C34.4752 27.816 34.2309 27.9049 33.9866 27.9826C33.5202 28.0826 33.0427 28.2713 32.6318 28.3047C32.543 28.3047 32.4431 28.3268 32.3542 28.338C32.2543 28.3602 32.1654 28.3824 32.0766 28.4046C31.9878 28.4379 31.8989 28.4712 31.8101 28.5045C31.7212 28.5379 31.6324 28.5823 31.5436 28.6267C31.4658 28.6822 31.377 28.7266 31.2993 28.7822C31.2215 28.8377 31.1438 28.9043 31.0772 28.9709C30.9994 29.0265 30.9217 29.1042 30.8551 29.1708C30.7884 29.2486 30.7218 29.3152 30.6663 29.3929C30.6108 29.4818 30.5441 29.5595 30.4997 29.6483C30.4442 29.7261 30.3887 29.8149 30.3442 29.9037C30.2998 30.0037 30.2554 30.0925 30.2221 30.1925C30.1888 30.2813 30.1555 30.3813 30.1222 30.4812C30.1 30.57 30.0777 30.6589 30.0666 30.7477C30.0666 30.7588 30.0555 30.7699 30.0555 30.781C30.0333 30.881 30.0333 31.0142 30.0222 31.0809C30.0111 31.1586 30 31.2252 30 31.303C30 31.3474 30 31.4029 30.0111 31.4473C30.0222 31.5251 30.0333 31.5917 30.0556 31.6583C30.0778 31.7249 30.1 31.7916 30.1333 31.8582C30.1333 31.8693 30.1333 31.8693 30.1333 31.8693C30.1666 31.9359 30.211 32.0026 30.2554 32.0692C30.2999 32.1358 30.3443 32.2025 30.3998 32.2691C30.4553 32.3246 30.522 32.3912 30.5886 32.4468C30.6552 32.5134 30.7218 32.5689 30.7996 32.6244C31.0661 32.8576 31.1327 32.9354 31.477 33.1131C31.5325 33.1464 31.588 33.1686 31.6547 33.2019C31.6658 33.2019 31.6768 33.213 31.688 33.213C31.688 33.2352 31.688 33.2463 31.6991 33.2685C31.7102 33.3574 31.7324 33.4462 31.7546 33.5351C31.7768 33.635 31.8101 33.7238 31.8435 33.8016C31.8768 33.8682 31.899 33.9348 31.9323 34.0015C31.9434 34.0237 31.9545 34.0459 31.9656 34.057C32.01 34.1458 32.0544 34.2236 32.0989 34.3013C32.1544 34.379 32.2099 34.4568 32.2654 34.5345C32.321 34.6011 32.3876 34.6789 32.4542 34.7455C32.5208 34.8121 32.5875 34.8676 32.6652 34.9343C32.6652 34.9343 32.6763 34.9454 32.6874 34.9454C32.754 35.0009 32.8207 35.0564 32.8873 35.1009C32.965 35.1564 33.0428 35.2008 33.1316 35.2452C33.2093 35.2897 33.2982 35.3341 33.387 35.3674C33.4536 35.4007 33.5314 35.4229 33.6091 35.4451C33.6202 35.4563 33.6313 35.4563 33.6535 35.4673C33.698 35.4784 33.7535 35.4895 33.7979 35.5006C33.7646 36.1003 33.7535 36.6666 33.8423 36.8665C33.9423 37.0886 34.4309 36.4112 34.9195 35.6339C34.8529 36.4001 34.8085 37.2996 34.9195 37.5661C35.0417 37.8437 35.7079 36.9776 36.2854 36.0225C44.1587 34.2014 51.3435 39.6427 52.0987 47.3272C51.9543 46.1279 50.4774 45.4616 49.8 45.6282C49.4668 46.45 48.9005 47.5049 47.9899 48.1601C48.0676 47.4272 48.0343 46.6721 47.8788 45.9391C47.6345 46.9608 47.157 47.9158 46.5018 48.7376C45.4469 48.8153 44.3919 48.3045 43.8367 47.5382C43.7922 47.5049 43.7811 47.4383 43.7478 47.3939C43.7145 47.3161 43.6812 47.2384 43.659 47.1607C43.6257 47.0829 43.6035 47.0052 43.5924 46.9275C43.5812 46.8497 43.5812 46.772 43.5812 46.6832C43.5812 46.6276 43.5812 46.5721 43.5812 46.5166C43.5924 46.4389 43.6146 46.3611 43.6368 46.2834C43.659 46.2057 43.6812 46.1279 43.7145 46.0502C43.7589 45.9725 43.7922 45.8947 43.8478 45.817C44.0365 45.284 44.0365 44.8509 43.6923 44.5955C43.6257 44.551 43.559 44.5177 43.4813 44.4844C43.4369 44.4733 43.3814 44.4511 43.3369 44.44C43.3036 44.4289 43.2814 44.4178 43.2481 44.4067C43.1704 44.3845 43.0926 44.3622 43.0149 44.3511C42.9372 44.329 42.8594 44.3178 42.7817 44.3178C42.704 44.3067 42.6151 44.2956 42.5374 44.2956C42.4819 44.2956 42.4263 44.3068 42.3708 44.3068C42.282 44.3068 42.2042 44.3179 42.1265 44.3401C42.0488 44.3512 41.971 44.3623 41.8933 44.3845C41.8156 44.4067 41.7378 44.4289 41.6601 44.4622C41.5824 44.4956 41.5157 44.5289 41.438 44.5622C41.3714 44.5955 41.3048 44.6399 41.227 44.6732C38.6396 46.3612 40.1832 50.3145 41.9488 51.4583C41.2825 51.5804 40.6052 51.7248 40.4164 51.8691C40.4052 51.8803 40.3942 51.8913 40.3942 51.8913C40.8717 52.1801 41.3714 52.4244 41.8933 52.6354C42.604 52.8686 43.3592 53.0796 43.6923 53.1684V53.1795C44.614 53.3683 45.5468 53.4349 46.4907 53.3794C51.4102 53.0352 55.4412 49.2928 56.1741 44.3623C56.1963 44.4622 56.2186 44.5511 56.2408 44.651C56.2741 44.8509 56.3185 45.0619 56.3407 45.2729C56.3407 45.2729 56.3407 45.2729 56.3407 45.284C56.3629 45.384 56.374 45.4839 56.3851 45.5727C56.3851 45.5949 56.3851 45.6061 56.3851 45.6172C56.3963 45.7171 56.4073 45.8171 56.4073 45.9059C56.4184 46.0281 56.4295 46.1502 56.4295 46.2724C56.4295 46.3279 56.4295 46.3834 56.4295 46.45C56.4295 46.5056 56.4406 46.5722 56.4406 46.6277C56.4406 46.6944 56.4295 46.761 56.4295 46.8276C56.4295 46.8831 56.4295 46.9387 56.4295 46.9831C56.4295 47.0608 56.4184 47.1274 56.4184 47.2052C56.4184 47.2496 56.4184 47.294 56.4073 47.3495C56.4073 47.4273 56.3961 47.505 56.3961 47.5938C56.385 47.6272 56.385 47.6605 56.385 47.6938C56.3739 47.7826 56.3628 47.8604 56.3517 47.9492C56.3517 47.9825 56.3517 48.0158 56.3406 48.0491C56.3294 48.1602 56.3073 48.2601 56.2961 48.3712V48.3823V48.3934C56.2739 48.4934 56.2517 48.6044 56.2295 48.7044C56.2295 48.7155 56.2295 48.7266 56.2295 48.7377C56.2073 48.8376 56.1851 48.9376 56.1629 49.0375C56.1629 49.0486 56.1518 49.0708 56.1518 49.0819C56.1296 49.1819 56.1073 49.2818 56.074 49.3818C56.074 49.3929 56.074 49.404 56.074 49.4151C56.0407 49.5261 56.0074 49.6261 55.9852 49.726C55.9741 49.7371 55.9741 49.7482 55.9741 49.7482C55.9408 49.8593 55.9074 49.9703 55.8741 50.0814C55.8297 50.1924 55.7964 50.2924 55.752 50.4034C55.7075 50.5145 55.6742 50.6255 55.6298 50.7254C55.5854 50.8365 55.541 50.9364 55.4966 51.0475H55.4854C55.441 51.1474 55.3966 51.2585 55.3411 51.3584C55.3299 51.3917 55.3189 51.4139 55.3077 51.4361C55.2966 51.4473 55.2966 51.4583 55.2856 51.4695C54.5637 52.9242 53.4977 54.2012 52.1651 55.2007C52.0763 55.2562 51.9874 55.3228 51.8986 55.3895C51.8764 55.4117 51.8431 55.4228 51.8209 55.445C51.7431 55.5005 51.6654 55.556 51.5766 55.6116L51.6099 55.6782H51.621C51.7764 55.656 51.9319 55.6338 52.0874 55.6116H52.0985C52.3872 55.5671 52.676 55.5116 52.9647 55.4561C53.0424 55.445 53.1313 55.4228 53.209 55.4006C53.2645 55.3894 53.3089 55.3784 53.3645 55.3672C53.4422 55.3561 53.5199 55.3339 53.5977 55.3228C53.6643 55.3006 53.7309 55.2895 53.7975 55.2673C54.908 55.0008 55.9852 54.6343 57.0179 54.2012C55.2523 56.611 52.8869 58.5543 50.1218 59.8314C51.3989 59.7425 52.676 59.5315 53.9086 59.1762C58.3838 57.8547 62.1484 54.8453 64.4026 50.792C63.9473 53.3573 62.9257 55.8003 61.4154 57.9324C62.4926 57.2217 63.4809 56.4 64.3804 55.4672C66.8679 52.8686 68.5003 49.5705 69.0556 46.0281C69.4331 47.7826 69.5442 49.5927 69.3776 51.3806C77.3953 40.1981 70.0439 28.6046 66.9679 25.5508C66.9567 25.5286 66.9457 25.5175 66.9457 25.4953C66.9345 25.5064 66.9345 25.5064 66.9345 25.5175C66.9345 25.5064 66.9345 25.5064 66.9234 25.4953C66.9234 25.6285 66.9123 25.7618 66.9012 25.8951C66.8679 26.1505 66.8346 26.3948 66.7902 26.6391C66.7346 26.8834 66.668 27.1277 66.6014 27.372C66.5236 27.6052 66.4348 27.8495 66.3349 28.0827C66.2349 28.3048 66.1239 28.538 66.0017 28.7601C65.8796 28.9711 65.7463 29.1932 65.602 29.3931C65.4576 29.6041 65.3021 29.8039 65.1467 29.9927C64.9801 30.1926 64.8024 30.3703 64.6247 30.548C64.5137 30.6479 64.4137 30.7368 64.3027 30.8256C64.2138 30.9033 64.1361 30.97 64.0473 31.0477C63.8474 31.2032 63.6475 31.3475 63.4254 31.4808C63.2144 31.614 62.9923 31.7473 62.7702 31.8583C62.537 31.9694 62.3038 32.0693 62.0706 32.1693C61.8374 32.2581 61.5931 32.3358 61.3488 32.4025C61.1045 32.4691 60.8491 32.5246 60.6048 32.569C60.3494 32.6135 60.094 32.6357 59.8497 32.6579C59.672 32.669 59.4943 32.6801 59.3166 32.6801C59.0612 32.6801 58.8058 32.6579 58.5615 32.6356C58.3061 32.6135 58.0507 32.5801 57.8064 32.5246C57.551 32.4802 57.3067 32.4135 57.0623 32.3358H57.0512C57.2955 32.3136 57.5398 32.2914 57.7841 32.247C58.0396 32.2025 58.2839 32.147 58.5282 32.0804C58.7725 32.0138 59.0168 31.936 59.25 31.8472C59.4943 31.7584 59.7275 31.6473 59.9496 31.5363C60.1828 31.4252 60.3938 31.3031 60.6159 31.1698C60.8269 31.0254 61.0379 30.8811 61.2377 30.7256C61.4376 30.5701 61.6264 30.4036 61.8041 30.2259C61.9929 30.0593 62.1594 29.8705 62.326 29.6818C62.4926 29.4819 62.6481 29.282 62.7924 29.0821C62.8146 29.0488 62.8369 29.0044 62.8591 28.9711C62.9701 28.7934 63.0811 28.6157 63.1811 28.438C63.3032 28.2159 63.4143 27.9938 63.5142 27.7606C63.6142 27.5274 63.703 27.2942 63.7807 27.0499C63.8585 26.8167 63.914 26.5724 63.9695 26.3281C64.014 26.0727 64.0584 25.8284 64.0806 25.5841C64.1028 25.3287 64.125 25.0733 64.125 24.829C64.125 24.6513 64.1139 24.4736 64.1028 24.2959C64.0806 24.0405 64.0473 23.7962 64.014 23.5519C63.9695 23.2965 63.914 23.0522 63.8474 22.8079C63.7697 22.5747 63.6919 22.3304 63.6031 22.0972C63.5143 21.864 63.4032 21.6308 63.2922 21.4087C63.17 21.1866 63.0479 20.9645 62.9146 20.7535C62.7702 20.5425 62.6259 20.3426 62.4704 20.1427C62.3038 19.9539 62.1373 19.7652 61.9596 19.5764C61.8708 19.4875 61.7708 19.3876 61.6709 19.2988C61.1712 18.9101 60.6492 18.5436 60.1273 18.2105C60.0496 18.1661 59.9829 18.1328 59.9052 18.0994C59.5387 17.8662 59.1945 17.744 58.8502 17.633Z" fill="#424242"/>
</svg>
