<svg width="75" height="75" viewBox="0 0 75 75" fill="none" xmlns="http://www.w3.org/2000/svg">
<path d="M18.9005 27.0383H32.4096V28.112H20.1388V36.1932H31.6779V37.2669H20.1388V46.1393H32.5503V47.213H18.9005V27.0383ZM33.6198 27.0383H35.0551L41.4157 35.9106L47.917 27.0383L56.7598 15.7683L42.2319 36.8431L49.7182 47.213H48.2266L41.4157 37.7755L34.5767 47.213H33.1132L40.6558 36.8431L33.6198 27.0383ZM50.2529 28.112V27.0383H65.6477V28.112H58.5554V47.213H57.3171V28.112H50.2529ZM2 27.0383H3.54792L24.8928 58.9789L16.072 47.213L3.29462 28.5641L3.23834 47.213H2V27.0383ZM65.5229 45.8152C65.2699 45.8152 65.0802 45.6192 65.0802 45.3659C65.0802 45.1125 65.2699 44.9165 65.5229 44.9165C65.7789 44.9165 65.9657 45.1125 65.9657 45.3659C65.9657 45.6192 65.7789 45.8152 65.5229 45.8152ZM66.7397 44.633H67.4024C67.4114 44.9919 67.6734 45.2332 68.059 45.2332C68.4897 45.2332 68.7336 44.9738 68.7336 44.4883V41.4121H69.4083V44.4913C69.4083 45.3659 68.9023 45.8695 68.065 45.8695C67.2789 45.8695 66.7397 45.381 66.7397 44.633ZM70.2908 44.5938H70.9594C71.0167 45.007 71.4203 45.2694 72.0016 45.2694C72.5437 45.2694 72.9413 44.9889 72.9413 44.6029C72.9413 44.2711 72.6883 44.0721 72.113 43.9364L71.5528 43.8006C70.7667 43.6167 70.4083 43.2367 70.4083 42.5973C70.4083 41.8223 71.0408 41.3065 71.9895 41.3065C72.872 41.3065 73.5166 41.8223 73.5557 42.5551H72.8991C72.8359 42.154 72.4865 41.9037 71.9805 41.9037C71.4474 41.9037 71.092 42.16 71.092 42.5521C71.092 42.8627 71.3209 43.0407 71.8871 43.1734L72.366 43.291C73.2575 43.4991 73.625 43.861 73.625 44.5154C73.625 45.3478 72.9804 45.8695 71.9504 45.8695C70.9866 45.8695 70.339 45.3719 70.2908 44.5938Z" fill="#424242"/>
</svg>
