<svg width="75" height="75" viewBox="0 0 75 75" fill="none" xmlns="http://www.w3.org/2000/svg">
<path d="M56.2434 15.8161C54.3449 15.5163 52.3465 15.4165 50.448 15.7162C49.3489 15.9161 48.2498 16.4157 47.3505 16.9153C44.2529 15.9161 40.7557 15.3165 37.5583 15.9161C35.2601 16.3157 33.0618 17.7146 31.8628 19.8129C30.364 22.311 30.0642 25.3086 30.2641 28.2063C30.6637 31.4038 31.4631 34.6012 32.3624 37.6988C33.1618 40.3966 34.061 43.0945 35.5598 45.4925C36.3592 46.7915 37.5583 48.1904 39.157 48.5901C40.456 48.8898 41.7549 48.5901 42.7541 47.6908C43.2537 48.1904 43.8533 48.5901 44.5527 48.7899C46.4512 49.4894 48.5495 49.4894 50.448 48.69C50.5479 51.288 50.448 53.9858 51.4472 56.3839C51.8469 57.583 52.4464 58.6821 53.5456 59.3815C54.7446 60.1809 56.1435 60.2808 57.5424 60.0809C58.7414 59.8811 60.0404 59.4815 61.0396 58.8819C62.1387 58.1825 63.038 57.1833 63.5376 55.9842C64.7367 53.2864 64.8366 50.3887 64.9365 47.491C67.7343 47.6908 70.632 46.9913 72.7303 45.0928C73.5297 44.3934 74.2291 43.2943 73.9294 42.1952C73.6296 41.196 72.5305 40.4965 71.5313 40.5964C70.4322 40.5964 69.433 40.9961 68.3338 40.9961C70.7319 36.7995 72.6304 32.303 73.4298 27.6067C73.7295 25.6083 74.0293 23.6099 73.4298 21.6115C73.13 20.5124 72.3307 19.6131 71.5313 18.8137C69.7327 17.0152 67.2347 15.8161 64.7367 15.3165C61.839 14.717 58.9413 15.0167 56.2434 15.8161Z" fill="white"/>
<path d="M56.1433 17.0155C59.1409 16.1162 62.3384 15.8165 65.336 16.7158C67.7341 17.4152 69.9324 18.8141 71.4312 20.8125C72.0307 21.6119 72.2305 22.711 72.2305 23.7102C72.2305 25.5088 71.9308 27.3074 71.5311 29.006C70.432 33.6024 68.4336 37.899 65.9355 41.8958C67.3344 42.4953 68.9332 42.1955 70.3321 41.9957C70.9316 41.8958 71.7309 41.6959 72.1306 42.2954C72.5303 42.895 72.1306 43.5944 71.7309 43.9941C69.6326 46.0924 66.4351 46.592 63.6374 46.0924C63.3376 48.5904 63.0378 51.0885 62.6382 53.6864C62.4383 55.0853 61.9387 56.5841 60.8396 57.4834C59.8404 58.3827 58.4415 58.7824 57.1425 58.9822C55.8436 59.182 54.2448 58.9822 53.2456 58.0829C52.1465 57.0837 51.447 55.5849 51.3471 54.186C51.0474 51.688 51.0474 49.09 51.0474 46.592C49.8483 47.5912 48.2496 48.1907 46.6509 48.0908C45.5517 48.0908 44.2528 47.7911 43.4534 46.9917C42.9538 46.592 43.0537 45.7927 43.5533 45.393C44.4526 44.6936 45.6516 44.7935 46.6509 44.3938C47.4502 44.194 47.8499 43.3946 48.2496 42.895C47.3503 42.895 46.451 42.5952 45.7516 42.1955C44.5525 43.4945 43.3535 44.8934 42.2543 46.1924C41.5549 46.9917 40.6556 47.6912 39.5565 47.4913C38.3574 47.2915 37.4582 46.3922 36.7587 45.4929C35.4597 43.5944 34.5605 41.3962 33.861 39.1979C32.7619 35.6008 31.8626 32.0036 31.363 28.3065C31.0632 25.5088 31.363 22.5112 32.9617 20.213C34.2607 18.3145 36.4589 17.3153 38.6572 17.1154C41.6548 16.8157 44.6524 17.4152 47.4502 18.4144C49.7484 16.9156 52.746 16.6159 55.4439 17.2154C55.7436 17.0155 55.9435 17.2154 56.1433 17.0155ZM58.3416 17.8149C58.9411 18.2146 59.5406 18.5144 60.1401 18.914C62.5382 20.5128 64.4367 22.811 65.5359 25.4089C65.8356 26.2083 66.2353 26.9077 66.1354 27.8069C66.1354 29.5056 65.5359 31.2043 65.7357 32.9029C65.9355 34.7015 66.3352 36.6 65.7357 38.3986C65.7357 38.9981 65.2361 39.5976 65.0363 40.1971C65.0363 40.297 65.1362 40.4969 65.1362 40.4969C65.336 40.1971 65.5359 39.8973 65.7357 39.5976C67.6342 36.5 69.0331 33.1027 70.0323 29.6055C70.5319 27.707 70.9316 25.7086 70.9316 23.7102C70.9316 21.7118 70.9316 22.0115 70.3321 21.3121C69.2329 19.9132 67.7341 18.8141 66.0355 18.1146C63.5374 17.3153 60.8396 17.2154 58.2416 17.8149H58.3416ZM51.3471 18.0147C49.4486 18.2146 47.6501 19.3137 46.5509 20.8125C45.0521 22.9108 44.3527 25.5088 44.1528 28.0068C45.7516 27.3074 47.4502 26.6079 49.2488 27.0076C50.3479 27.3074 51.2472 28.3066 51.447 29.4057C51.9466 31.7039 52.2464 34.002 51.7468 36.3002C51.3471 38.0988 50.248 39.6975 49.8483 41.596C50.3479 41.596 50.8475 41.596 51.2472 41.8958C52.1465 42.3954 52.6461 43.3946 52.5462 44.3938C52.4463 46.8918 52.4463 49.3898 52.6461 51.8879C52.746 52.8871 52.746 53.9862 53.0458 54.9854C53.4455 56.1844 54.2448 57.3835 55.5438 57.6832C56.9427 57.8831 58.3416 57.4834 59.6405 56.8839C60.8396 56.2844 61.4391 54.8854 61.639 53.5865C62.0386 50.8886 62.3384 48.1908 62.6382 45.4929C62.7381 44.4937 62.6382 43.4945 63.1378 42.5952C63.4375 41.9957 64.037 41.7958 64.5366 41.4961C64.137 40.8966 63.6374 40.297 63.2377 39.6975C61.9387 36.8997 60.1401 34.3018 59.5406 31.3042C59.3408 30.0052 59.4407 28.5064 60.5398 27.6071C61.7389 26.6079 63.3376 26.7078 64.8364 26.7078C63.9371 24.2098 62.3384 22.0116 60.34 20.4129C57.742 18.5144 54.4447 17.6151 51.3471 18.0147ZM38.0577 18.2146C36.359 18.5144 34.6604 19.5135 33.7611 21.1123C32.562 23.2106 32.4621 25.6087 32.662 27.9069C33.0616 30.9045 33.7611 33.9021 34.6604 36.8998C35.4597 39.3978 36.2591 41.8957 37.658 44.094C38.1576 44.8934 38.7571 45.6928 39.6564 45.9925C40.4558 46.1924 41.0553 45.4929 41.5549 44.9933C42.5541 43.6943 43.7532 42.4953 44.8523 41.1963C43.2536 39.7974 42.4542 37.5992 42.654 35.4009C42.8539 33.8022 42.9538 32.1036 42.8539 30.4049C42.654 28.1067 43.0537 25.7086 43.7532 23.4105C44.2528 21.7118 45.152 20.213 46.3511 18.914C43.6532 18.3145 40.7555 17.715 38.0577 18.2146ZM61.3392 28.5064C60.5398 29.1059 60.5398 30.305 60.7397 31.2043C61.3392 34.102 63.0378 36.5 64.2369 39.098C65.2361 37.1995 64.6366 35.0013 64.4367 32.9029C64.2369 31.2043 64.7365 29.6055 64.8364 28.0068C63.7373 28.0068 62.4383 27.807 61.3392 28.5064ZM44.0529 29.6055C44.0529 31.0044 44.1528 32.4033 44.0529 33.7023C43.953 34.9013 43.6532 36.1004 43.953 37.2994C44.3527 39.4977 46.2512 41.2962 48.5493 41.2962C48.8491 40.1971 49.2488 39.098 49.7484 38.0988C51.1473 35.4009 50.8475 32.3034 50.1481 29.5056C49.9482 28.7062 49.2488 28.1067 48.4494 28.1067C46.8507 28.1067 45.3519 28.8061 44.0529 29.6055ZM64.3368 43.0948C63.9371 43.4945 63.9371 44.094 63.9371 44.5936C64.8364 44.8934 65.8356 44.8934 66.8348 44.7935C68.2337 44.5936 69.7325 44.1939 70.8317 43.0948C69.133 43.2946 67.2345 43.6944 65.5359 42.895C65.1362 42.6952 64.6366 42.8949 64.3368 43.0948ZM47.8499 45.0932C46.8507 45.6927 45.6516 45.5928 44.7524 46.0924C46.7508 47.0916 49.6485 46.7919 51.0474 44.8934C51.7468 44.194 51.0474 42.7951 50.1481 42.895C49.1489 43.4945 48.7492 44.5936 47.8499 45.0932Z" fill="white"/>
<path d="M61.7393 28.9055C62.3388 28.5058 63.1382 28.5058 63.7377 28.7057C63.7377 29.505 62.7385 30.1046 62.0391 29.7049C61.8392 29.7049 61.4396 29.2053 61.7393 28.9055Z" fill="white"/>
<path d="M47.6502 29.0054C48.2498 28.8056 48.9492 28.9055 49.4488 29.3052C49.7486 29.605 49.4488 30.1046 49.149 30.2045C48.4496 30.7041 47.3505 30.2045 47.2505 29.4051C47.2505 29.2053 47.4504 29.0054 47.6502 29.0054Z" fill="white"/>
<path d="M58.3416 17.8149C60.8396 17.2154 63.6374 17.3154 66.0355 18.2147C67.7342 18.8142 69.233 20.0132 70.3321 21.4121C70.9316 22.1116 70.9316 23.0108 70.9316 23.8102C70.9316 25.8086 70.5319 27.7071 70.0323 29.7055C69.0331 33.2027 67.6342 36.6 65.7357 39.6976C65.5359 39.9974 65.3361 40.2971 65.1362 40.5968L65.0363 40.2971C65.2361 39.6976 65.6358 39.0981 65.7357 38.4985C66.2353 36.7 65.7357 34.8015 65.7357 33.0029C65.5359 31.3042 66.1354 29.6056 66.1354 27.907C66.2353 27.1076 65.8357 26.3082 65.5359 25.5088C64.3369 22.9109 62.5383 20.6127 60.1402 19.014C59.7405 18.5144 59.0411 18.2146 58.4415 17.8149H58.3416Z" fill="#5B5B5B"/>
<path d="M51.3474 18.0143C54.4449 17.6146 57.7423 18.5139 60.2403 20.4124C62.2387 22.0112 63.9374 24.2094 64.7367 26.7074C63.3378 26.7074 61.6392 26.7074 60.4401 27.6067C59.341 28.506 59.2411 30.0048 59.4409 31.3037C60.0405 34.4013 61.839 36.9992 63.138 39.6971C63.4378 40.3965 63.9374 40.8961 64.437 41.4957C63.8374 41.7954 63.3378 41.9952 63.0381 42.5948C62.5385 43.4941 62.7383 44.4933 62.5385 45.4925C62.2387 48.1903 61.939 50.8882 61.5393 53.586C61.3394 54.885 60.7399 56.2839 59.5409 56.8835C58.3418 57.483 56.843 57.8827 55.4441 57.6828C54.1451 57.483 53.2459 56.184 52.9461 54.985C52.6463 53.9857 52.6463 52.8866 52.5464 51.8874C52.5464 49.3894 52.5464 46.8914 52.5464 44.3934C52.5464 43.3942 52.1467 42.395 51.2474 41.8954C50.8478 41.6955 50.3482 41.5956 49.8486 41.5956C50.2482 39.797 51.3474 38.1983 51.747 36.2998C52.2466 34.0016 51.9469 31.7035 51.4473 29.4053C51.2474 28.3062 50.3482 27.3069 49.249 27.0072C47.4505 26.6075 45.7518 27.207 44.1531 28.0064C44.3529 25.5084 45.0524 22.9104 46.5512 20.8121C47.7502 19.3133 49.5488 18.3141 51.4473 18.0143H51.3474Z" fill="#5B5B5B"/>
<path d="M38.0578 18.2144C40.8556 17.7148 43.6534 18.2144 46.3512 19.0137C45.1522 20.3127 44.2529 21.8115 43.7533 23.5102C43.0539 25.7084 42.7541 28.1065 42.854 30.5046C42.854 32.2033 42.854 33.802 42.6542 35.5006C42.3544 37.599 43.2537 39.7972 44.8524 41.296C43.7533 42.595 42.6542 43.794 41.5551 45.093C41.0555 45.6925 40.4559 46.292 39.6566 46.0922C38.7573 45.7924 38.1578 44.9931 37.6582 44.1937C36.2593 41.9955 35.4599 39.4975 34.6605 36.9994C33.7612 34.1017 33.0618 31.1041 32.6621 28.0066C32.4623 25.7084 32.5622 23.2104 33.7612 21.212C34.6605 19.6133 36.2593 18.6141 38.0578 18.2144Z" fill="#5B5B5B"/>
<path d="M61.3391 28.5062C62.3383 27.8067 63.7372 27.9066 64.8363 28.0066C64.8363 29.6053 64.2368 31.2041 64.4367 32.9027C64.6365 34.9011 65.1361 37.0993 64.2368 39.0977C62.9378 36.4998 61.2392 34.1017 60.7396 31.204C60.6397 30.3048 60.6397 29.2056 61.3391 28.5062ZM61.7388 28.9059C61.439 29.2056 61.7388 29.6053 62.0386 29.7052C62.738 30.1049 63.7372 29.5054 63.7372 28.706C63.1377 28.5062 62.3383 28.5062 61.7388 28.9059Z" fill="#5B5B5B"/>
<path d="M44.0532 29.6054C45.3522 28.8061 46.851 28.1066 48.3498 28.2066C49.1491 28.2066 49.8486 28.8061 50.0484 29.6054C50.7479 32.4032 50.9477 35.5008 49.6487 38.1986C49.1491 39.1978 48.7495 40.297 48.4497 41.3961C46.1515 41.3961 44.253 39.4976 43.8534 37.3993C43.5536 36.2002 43.8534 35.0011 43.8534 33.8021C44.0532 32.3033 43.9533 31.0043 43.9533 29.6054H44.0532ZM47.6503 29.0059C47.4505 29.0059 47.2507 29.2058 47.2507 29.4056C47.3506 30.205 48.4497 30.7046 49.1491 30.205C49.4489 30.0051 49.7487 29.6054 49.4489 29.3057C48.9493 28.906 48.2499 28.8061 47.6503 29.0059Z" fill="#5B5B5B"/>
<path d="M64.3371 43.0943C64.6368 42.8944 65.1364 42.5947 65.5361 42.8945C67.1348 43.7938 69.0333 43.2941 70.8319 43.0943C69.7328 44.0935 68.3339 44.5931 66.8351 44.7929C65.8359 44.7929 64.8367 44.9928 63.9374 44.5931C63.9374 44.0935 63.9374 43.4939 64.3371 43.0943Z" fill="#5B5B5B"/>
<path d="M47.8498 45.0929C48.7491 44.5933 49.1488 43.4942 50.0481 42.8947C50.9473 42.8947 51.7467 44.1936 50.9473 44.8931C49.5485 46.7916 46.6508 47.1912 44.6523 46.0921C45.6516 45.6924 46.8506 45.6924 47.8498 45.0929Z" fill="#5B5B5B"/>
<path d="M56.2432 15.8164C58.941 15.1169 61.8387 14.8172 64.6365 15.3168C67.1345 15.7164 69.5326 17.0154 71.4311 18.814C72.2305 19.6133 73.0298 20.5126 73.3296 21.6117C73.9291 23.6102 73.6294 25.6086 73.3296 27.607C72.4303 32.3033 70.6317 36.7997 68.2336 40.9964C69.3328 40.9964 70.332 40.6966 71.4311 40.5967C72.4303 40.5967 73.6294 41.1962 73.8292 42.1954C74.129 43.2946 73.4295 44.3937 72.6301 45.0931C70.4319 46.9916 67.4343 47.5911 64.7364 47.4912C64.5366 50.3889 64.5366 53.2866 63.3375 55.9845C62.738 57.1835 61.9386 58.1828 60.8395 58.8822C59.7404 59.5816 58.5413 59.8814 57.3423 60.0812C56.0433 60.281 54.5445 60.0812 53.3455 59.3818C52.2463 58.6824 51.6468 57.5832 51.2471 56.3842C50.3478 53.8862 50.4478 51.2882 50.2479 48.6903C48.3494 49.4896 46.2511 49.4896 44.3526 48.7902C43.6532 48.5903 43.0536 48.1907 42.554 47.6911C41.5548 48.4904 40.2559 48.8901 38.9569 48.5903C37.3582 48.1906 36.259 46.7918 35.3597 45.4928C33.8609 43.0947 32.9616 40.3969 32.1623 37.699C31.263 34.6015 30.4636 31.5039 30.0639 28.2065C29.8641 25.3088 30.0639 22.3112 31.6627 19.8132C32.8617 17.8148 35.06 16.4159 37.3582 15.9163C40.6555 15.2169 44.0528 15.9163 47.1504 16.8156C48.1496 16.316 49.1488 15.8163 50.2479 15.6165C52.3463 15.3167 54.3447 15.6165 56.2432 15.8164ZM56.1432 17.0154C55.9434 17.0154 55.6436 16.9155 55.4438 16.9155C52.7459 16.316 49.7483 16.6157 47.4501 18.1145C44.6524 17.1153 41.6547 16.5158 38.6571 16.8156C36.4589 17.0154 34.1607 18.1146 32.9616 19.9131C31.3629 22.3112 31.1631 25.3088 31.3629 28.0067C31.8625 31.7038 32.7618 35.3009 33.8609 38.7981C34.6603 40.9964 35.4597 43.1946 36.7586 45.0931C37.4581 45.9924 38.3574 46.9916 39.5564 47.0915C40.6555 47.0915 41.5548 46.5919 42.2543 45.7926C43.4533 44.3937 44.5524 43.0947 45.7515 41.7957C46.5509 42.1954 47.4501 42.3953 48.2495 42.4952C47.7499 43.0947 47.3502 43.7942 46.6508 43.994C45.6516 44.3937 44.4525 44.2938 43.5532 44.9932C43.0536 45.3929 42.9537 46.1922 43.4533 46.5919C44.2527 47.3913 45.5517 47.5911 46.6508 47.6911C48.2495 47.791 49.8482 47.2914 51.0473 46.1923C51.0473 48.6903 51.0473 51.2882 51.347 53.7862C51.447 55.285 52.1464 56.7838 53.2455 57.6831C54.2447 58.5824 55.8435 58.7822 57.1424 58.5824C58.4414 58.2826 59.8403 57.8829 60.8395 57.0836C61.9386 56.0844 62.4382 54.6855 62.6381 53.2866C63.0378 50.7886 63.3375 48.2906 63.6373 45.6927C66.4351 46.1923 69.6325 45.6926 71.7309 43.5943C72.1305 43.1946 72.6301 42.3953 72.1305 41.8957C71.7309 41.3961 70.9315 41.496 70.332 41.5959C68.9331 41.8956 67.3344 42.1954 65.9355 41.5959C68.4335 37.599 70.4319 33.3025 71.531 28.7061C71.9307 27.0075 72.2305 25.2089 72.2305 23.4104C72.2305 22.4112 72.0306 21.312 71.4311 20.5126C69.9323 18.5142 67.734 17.1154 65.3359 16.4159C62.4382 16.0162 59.1409 16.216 56.1432 17.1153V17.0154Z" fill="#424242"/>
</svg>
