<svg width="75" height="75" viewBox="0 0 75 75" fill="none" xmlns="http://www.w3.org/2000/svg">
<path fillRule="evenodd" clipRule="evenodd" d="M32.7425 26.9312C36.4378 20.4109 43.4355 16 51.477 16C63.3641 16 73.0006 25.6202 73 37.4848C72.9977 39.7751 72.6278 42.0501 71.9042 44.2234H31.1451C30.8785 43.3926 30.7008 42.64 30.7008 42.64H60.5602C62.468 42.64 64.0433 41.665 64.7756 40.0304C65.571 38.2518 65.2344 36.3955 64.0645 34.7806C62.799 33.0348 60.676 30.5842 59.2056 29.4738C56.4968 27.4267 53.0542 27.1263 50.2533 27.0331L49.4492 27.0035C49.3674 27 49.2897 26.9967 49.2143 26.9935C48.094 26.9457 47.4845 26.9196 41.2558 26.9196V26.9218H41.2545C41.2545 26.9218 35.6303 26.9252 32.7425 26.9312ZM30 36.5417C30.0306 35.818 30.0973 35.0962 30.1997 34.379H47.3679V32.2018H30.631C30.8274 31.3127 31.2308 30.2196 31.649 29.0919C34.8799 29.0834 38.1978 29.0756 41.2496 29.0756C46.9516 29.0756 47.9232 29.0993 49.3557 29.1581C49.7452 29.1747 50.124 29.1847 50.4951 29.1944C54.2181 29.2922 57.1621 29.3696 62.2397 35.9221C62.3942 36.1185 62.5474 36.3192 62.6615 36.5417H30ZM30.0168 38.7212H62.9189C62.6727 39.6734 61.9147 40.4409 60.5605 40.4409H30.1838C30.1055 39.8754 30.0512 39.3021 30.0168 38.7212ZM51.4773 58.9512C36.9262 58.7317 31.8904 46.3807 31.8904 46.3807H71.0417C67.6473 53.7918 60.1744 58.9512 51.4773 58.9512Z" fill="#424242"/>
</svg>
