<svg width="75" height="75" viewBox="0 0 75 75" fill="none" xmlns="http://www.w3.org/2000/svg">
<path d="M55.6262 37.1351C55.6262 39.3592 53.8232 41.1622 51.5991 41.1622C49.375 41.1622 47.572 39.3592 47.572 37.1351C47.572 34.911 49.375 33.108 51.5991 33.108C53.8232 33.108 55.6262 34.911 55.6262 37.1351Z" fill="#424242"/>
<path fillRule="evenodd" clipRule="evenodd" d="M51.6148 22.0284C51.981 21.6764 52.3466 21.3416 52.7104 21.025C54.5929 19.3868 56.4737 18.2068 58.1767 17.5806C59.8455 16.9671 61.5367 16.8206 62.8534 17.5799C64.214 18.3645 64.9629 19.9734 65.2722 21.824C65.5881 23.7132 65.4881 26.068 64.9502 28.6792C64.8861 28.9906 64.8151 29.3063 64.7374 29.6258C65.2223 29.7666 65.6922 29.9151 66.1457 30.0713C68.5052 30.8836 70.4671 31.9234 71.8603 33.0859C73.2255 34.225 74.1973 35.6168 74.1973 37.1369C74.1973 38.7075 73.1776 40.1599 71.7291 41.3524C70.2503 42.5699 68.1605 43.6596 65.6297 44.4981C65.3665 44.5853 65.0979 44.6696 64.8242 44.7509C64.9234 45.1523 65.0117 45.548 65.0885 45.9373C65.5908 48.484 65.6495 50.7849 65.3053 52.6336C64.9679 54.4451 64.2023 56.0128 62.8734 56.7811C61.5771 57.5309 59.9188 57.422 58.2655 56.839C56.5839 56.246 54.7272 55.1053 52.8583 53.4949C52.4635 53.1547 52.0659 52.792 51.6671 52.4084C51.3696 52.6944 51.0716 52.9682 50.7734 53.2289C48.8191 54.9372 46.8557 56.1385 45.0826 56.7647C43.3451 57.3784 41.6047 57.4992 40.2748 56.7324C38.9773 55.9847 38.2425 54.4941 37.9208 52.7709C37.5935 51.0181 37.653 48.8398 38.1132 46.416C38.2098 45.9073 38.3243 45.385 38.456 44.8513C38.053 44.7349 37.6606 44.6118 37.2798 44.4816C34.8236 43.6421 32.8021 42.5414 31.3738 41.3183C29.9742 40.1196 29 38.6721 29 37.1369C29 35.6395 29.924 34.2584 31.256 33.1188C32.6109 31.9596 34.5274 30.923 36.8569 30.1108C37.3774 29.9294 37.9212 29.7578 38.486 29.5968C38.3654 29.1077 38.2592 28.6276 38.1676 28.1578C37.6901 25.7085 37.6086 23.4896 37.9179 21.7017C38.221 19.9497 38.9396 18.4118 40.2556 17.6511C41.6154 16.8651 43.3832 17.0211 45.1405 17.6784C46.9346 18.3495 48.9239 19.6135 50.9162 21.3849C51.149 21.5918 51.3819 21.8064 51.6148 22.0284ZM58.8755 19.4813C57.4693 19.9983 55.7978 21.0227 54.0398 22.5526C53.7069 22.8422 53.3715 23.1492 53.0346 23.4725C54.3166 24.8579 55.5843 26.4466 56.7999 28.1769C58.9187 28.3762 60.9309 28.6953 62.7767 29.1187C62.846 28.832 62.9095 28.5492 62.9668 28.2708C63.4704 25.8261 63.5383 23.733 63.2749 22.1579C63.0051 20.5441 62.4277 19.672 61.8418 19.3341C61.2909 19.0164 60.316 18.9517 58.8755 19.4813ZM54.1631 27.9941C53.3239 26.8806 52.4702 25.8497 51.6159 24.9212C50.7557 25.8525 49.894 26.8812 49.0465 27.9934C49.8878 27.9557 50.7397 27.9365 51.5983 27.9365H51.599C52.4636 27.9365 53.3194 27.956 54.1631 27.9941ZM40.4487 29.0982C40.3374 28.6456 40.2395 28.2026 40.1552 27.7703C39.7093 25.4829 39.6579 23.5232 39.9133 22.0468C40.1749 20.5346 40.7184 19.7226 41.269 19.4043C41.8545 19.0659 42.8985 19.0019 44.431 19.5751C45.9268 20.1346 47.7055 21.24 49.5708 22.8985C49.7787 23.0832 49.9873 23.2751 50.1963 23.4739C48.9093 24.8599 47.6295 26.4416 46.4001 28.1751C44.295 28.3712 42.2887 28.6839 40.4487 29.0982ZM39.0278 31.5481C38.5047 31.6975 38.0026 31.856 37.5235 32.023C35.354 32.7794 33.6818 33.7085 32.5725 34.6575C31.4404 35.6261 31.025 36.4957 31.025 37.1369C31.025 37.8058 31.4783 38.7416 32.691 39.7802C33.8752 40.7943 35.6511 41.7849 37.9347 42.5654C38.2782 42.6828 38.6332 42.7944 38.9989 42.9003C39.5625 41.0711 40.3036 39.1441 41.2005 37.1887C40.3139 35.2563 39.5842 33.3563 39.0278 31.5481ZM42.3656 34.8033C41.8279 33.5166 41.3692 32.2591 40.9939 31.0514C42.2252 30.7776 43.5416 30.55 44.9202 30.3747C44.5814 30.9056 44.2481 31.4475 43.9214 31.9994L43.9164 31.999L43.593 32.5599C43.1634 33.3052 42.7538 34.0542 42.3656 34.8033ZM43.4377 37.1884C43.9742 36.0721 44.5638 34.9457 45.2029 33.8235L45.3482 33.5715C46.0444 32.3644 46.7717 31.2081 47.5187 30.1132C48.8438 30.0137 50.2095 29.9615 51.5983 29.9615H51.599C52.9912 29.9615 54.355 30.0139 55.6756 30.1137C56.422 31.217 57.1491 32.3792 57.8462 33.5852C58.5391 34.784 59.1833 35.983 59.7695 37.1675C59.1875 38.3648 58.5449 39.5748 57.8495 40.7808C57.1551 41.9847 56.4362 43.1462 55.7006 44.2498C54.3688 44.3444 52.9954 44.3926 51.599 44.3926C50.211 44.3926 48.8474 44.3502 47.5256 44.2645C46.8283 43.2434 46.1488 42.1714 45.4977 41.0588L45.3521 40.8069C44.653 39.5973 44.0137 38.3859 43.4377 37.1884ZM42.366 39.5721C41.8172 40.8832 41.3484 42.1653 40.966 43.3937C42.2108 43.6625 43.5457 43.8763 44.9468 44.0359C44.4855 43.3157 44.0351 42.5764 43.5984 41.8211L43.2744 41.2606L43.2773 41.2565C42.9613 40.6953 42.6574 40.1334 42.366 39.5721ZM46.4152 46.2136C44.2969 46.0403 42.274 45.7544 40.4195 45.3471C40.2975 45.8421 40.1917 46.325 40.1027 46.7938C39.6741 49.0511 39.6434 50.9641 39.9114 52.3992C40.1849 53.8639 40.7307 54.6579 41.2859 54.9779L41.2862 54.978C41.8656 55.3122 42.9027 55.387 44.4083 54.8553C45.8783 54.3361 47.6236 53.2925 49.4406 51.7042C49.7096 51.4691 49.9792 51.2216 50.2493 50.9623C48.9509 49.5631 47.6566 47.9625 46.4152 46.2136ZM53.0784 50.9561C53.4486 51.3119 53.8163 51.6473 54.1802 51.9608C55.9208 53.4607 57.5621 54.4437 58.939 54.9292C60.3442 55.4247 61.3047 55.349 61.8594 55.0282L61.8597 55.028C62.4388 54.6933 63.0221 53.8326 63.3144 52.2629C63.5998 50.7301 63.5687 48.6969 63.1017 46.3292C63.033 45.9806 62.9539 45.6252 62.865 45.2637C61.0036 45.6907 58.9669 46.0004 56.8306 46.1908C55.6201 47.9414 54.3597 49.5524 53.0784 50.9561ZM64.2721 42.8024C64.5173 42.7293 64.7576 42.6538 64.9928 42.5759C67.3622 41.7908 69.2091 40.804 70.442 39.789C71.7052 38.7491 72.1722 37.8132 72.1722 37.1369C72.1722 36.5008 71.7412 35.624 70.5629 34.6408C69.4125 33.6809 67.69 32.7446 65.4865 31.986C65.0718 31.8432 64.641 31.7068 64.1954 31.5771C63.6385 33.3705 62.9004 35.252 62.0154 37.1589C62.9288 39.0863 63.6958 40.9873 64.2721 42.8024ZM60.8588 39.5059C61.4284 40.8128 61.9164 42.089 62.3095 43.3134C61.049 43.5984 59.6947 43.829 58.2727 44.0028C58.7263 43.2817 59.1705 42.5436 59.6037 41.7924C60.0417 41.0329 60.4608 40.2694 60.8588 39.5059ZM60.8411 34.8164C61.3868 33.5322 61.8538 32.2765 62.2319 31.0714C60.9903 30.79 59.6627 30.5564 58.2695 30.3773C58.7238 31.0924 59.1678 31.8251 59.5994 32.5718C60.0308 33.3181 60.4455 34.0674 60.8411 34.8164ZM51.6604 49.5057C50.7848 48.5566 49.906 47.5053 49.0423 46.3698C49.8861 46.4019 50.7397 46.4177 51.599 46.4177C52.4801 46.4177 53.3552 46.3991 54.2195 46.362C53.3767 47.5024 52.5198 48.5575 51.6604 49.5057Z" fill="#424242"/>
</svg>
