<svg width="75" height="75" viewBox="0 0 75 75" fill="none" xmlns="http://www.w3.org/2000/svg">
<path d="M59.4874 46.1728C61.1111 46.0048 62.3429 44.605 62.2869 42.9252C62.231 41.2454 60.8312 39.9015 59.1514 39.9015H59.0394C57.3037 39.9575 55.9599 41.4133 56.0159 43.1491C56.0718 43.9891 56.4078 44.717 56.9117 45.2209C55.008 48.9725 52.0964 51.7162 47.7291 54.012C44.7615 55.5798 41.6819 56.1397 38.6024 55.7478C36.0828 55.4118 34.123 54.2919 32.8912 52.4441C31.0995 49.7004 30.9315 46.7328 32.4433 43.7651C33.5071 41.6373 35.1869 40.0695 36.2507 39.2856C36.0268 38.5576 35.6908 37.3258 35.5228 36.4299C27.404 42.3092 28.2439 50.2604 30.7075 54.012C32.5553 56.8117 36.3067 58.5475 40.4501 58.5475C41.57 58.5475 42.6898 58.4355 43.8096 58.1555C50.9766 56.7557 56.4078 52.5001 59.4874 46.1728ZM69.3419 39.2296C65.0865 34.2461 58.8154 31.5024 51.6485 31.5024H50.7526C50.2487 30.4945 49.1849 29.8226 48.009 29.8226H47.897C46.1613 29.8786 44.8175 31.3344 44.8735 33.0702C44.9295 34.7501 46.3293 36.0939 48.009 36.0939H48.121C49.3528 36.0379 50.4167 35.254 50.8646 34.1901H51.8725C56.1278 34.1901 60.1593 35.422 63.7987 37.8297C66.5983 39.6775 68.614 42.0853 69.7339 44.9969C70.6857 47.3487 70.6297 49.6444 69.6219 51.6042C68.0541 54.5719 65.4225 56.1957 61.951 56.1957C59.7113 56.1957 57.5836 55.5238 56.4638 55.0199C55.8479 55.5798 54.728 56.4757 53.9442 57.0356C56.3518 58.1555 58.8155 58.7714 61.1671 58.7714C66.5423 58.7714 70.5177 55.8038 72.0295 52.8361C73.6533 49.5884 73.5413 43.9891 69.3419 39.2296ZM40.8981 47.1247C40.954 48.8045 42.3538 50.1484 44.0336 50.1484H44.1456C45.8813 50.0924 47.2251 48.6365 47.1691 46.9007C47.1132 45.2209 45.7134 43.8771 44.0336 43.8771H43.9216C43.8096 43.8771 43.6417 43.8771 43.5297 43.9331C41.234 40.1255 40.2821 35.9819 40.6181 31.5024C40.8421 28.1428 41.9619 25.2311 43.9216 22.8234C45.5454 20.7516 48.6809 19.7437 50.8086 19.6877C56.7437 19.5757 59.2634 26.9669 59.4314 29.9346C60.1593 30.1026 61.3911 30.4945 62.231 30.7745C61.559 21.7035 55.9599 17 50.5846 17C45.5454 17 40.8981 20.6396 39.0503 26.015C36.4747 33.1822 38.1545 40.0695 41.29 45.5009C41.01 45.8928 40.8421 46.5088 40.8981 47.1247Z" fill="#424242"/>
</svg>
