<svg width="75" height="75" viewBox="0 0 75 75" fill="none" xmlns="http://www.w3.org/2000/svg">
<path d="M54.9773 36.0597V45.0708H52.0744V34.6486L54.9773 36.0597Z" fill="#5B5B5B"/>
<path d="M13.8934 43.3978L16.0706 45.2927L25.2429 40.515L24.2954 38.2371L13.8934 43.3978ZM52.0745 37.592L59.4527 33.7618L58.2029 31.6048L52.0745 34.6488V37.592Z" fill="#A6A6A6"/>
<path d="M31.3108 35.3545V45.0711H28.5288V31.2219L31.3108 35.3545ZM13.8934 43.3979L16.0706 45.2928L20.2636 34.8102L18.913 31.2219L13.8934 43.3979Z" fill="#5B5B5B"/>
<path d="M18.9133 31.2219H21.7759L27.0777 45.0711H24.1345L18.9133 31.2219ZM31.7345 31.2219L37.8426 40.6764V45.0711L28.5292 31.2219H31.7345ZM43.084 31.2219H45.9667V45.0711H43.084V31.2219ZM52.0749 33.7619H47.6399V31.2219H57.9815L59.4531 33.7619H54.9778H52.0749Z" fill="#424242"/>
<path d="M67.9798 39.8095V45.071H65.1172V39.8095" fill="#A6A6A6"/>
<path d="M69.9554 31.2219L65.1172 39.8096H67.9798L72.9994 31.2219H69.9554Z" fill="#424242"/>
<path d="M65.1183 39.8096L60.1189 31.2219H63.2637L66.6303 37.1083L65.1183 39.8096Z" fill="#5B5B5B"/>
<path d="M3.14843 32.8343C3.14843 34.7494 4.33781 35.8985 6.71657 36.5033L9.23645 37.0879C11.4943 37.612 12.8651 38.9022 12.8651 40.9987C12.8852 41.9059 12.5828 42.7929 12.0385 43.5186C12.0385 41.422 10.95 40.2931 8.34945 39.6077L5.8699 39.0433C3.87415 38.5998 2.34207 37.5314 2.34207 35.2534C2.34207 34.3866 2.6243 33.5197 3.14843 32.8343Z" fill="#424242"/>
<path d="M37.8436 39.9709V31.2219H40.6255V45.0711H37.8436V39.9709Z" fill="#5B5B5B"/>
<path d="M10.4869 40.4747C11.5554 41.1601 12.0392 42.1278 12.0392 43.5187C11.132 44.6678 9.57978 45.2927 7.74531 45.2927C4.66099 45.2927 2.46366 43.7606 2 41.1198H4.96337C5.34639 42.3293 6.35434 42.8938 7.72515 42.8938C9.35803 42.914 10.4668 42.027 10.4869 40.4747ZM3.14906 32.8143C4.0159 31.6854 5.50766 31 7.32197 31C10.4869 31 12.3012 32.6732 12.7649 35.0116H9.90233C9.57978 34.0843 8.79358 33.3586 7.36229 33.3586C5.81005 33.3788 4.76178 34.2658 4.70131 35.6769C3.66252 35.104 3.10874 33.9835 3.14906 32.8143Z" fill="#5B5B5B"/>
</svg>
