<svg width="75" height="75" viewBox="0 0 75 75" fill="none" xmlns="http://www.w3.org/2000/svg">
<path d="M33 31.8667C33 25.3298 33 22.0615 35.0307 20.0307C37.0615 18 40.3298 18 46.8667 18H59.1334C65.6702 18 68.9385 18 70.9692 20.0307C73 22.0615 73 25.3298 73 31.8667V44.1334C73 50.6702 73 53.9385 70.9692 55.9692C68.9385 58 65.6702 58 59.1334 58H46.8667C40.3298 58 37.0615 58 35.0307 55.9692C33 53.9385 33 50.6702 33 44.1334V31.8667Z" fill="#424242"/>
<path d="M60.5998 30.1334H47.133V37.0001H53.9998V43.8667H60.8664V30.4001C60.8664 30.2528 60.7469 30.1334 60.5998 30.1334Z" fill="white"/>
<path d="M53.9993 36.9999H53.7327V37.2665H53.9993V36.9999Z" fill="white"/>
<path d="M47.133 36.9999H53.733C53.8803 36.9999 53.9998 37.1193 53.9998 37.2665V43.8665H47.3997C47.2524 43.8665 47.133 43.7472 47.133 43.5999V36.9999Z" fill="#A6A6A6"/>
<path d="M53.9994 43.8665H60.866L54.227 50.5056C54.143 50.5895 53.9994 50.5301 53.9994 50.4114V43.8665Z" fill="#A6A6A6"/>
<path d="M47.1326 37.0001H40.5879C40.4691 37.0001 40.4096 36.8565 40.4936 36.7725L47.1326 30.1334V37.0001Z" fill="#A6A6A6"/>
</svg>
