<svg width="75" height="75" viewBox="0 0 75 75" fill="none" xmlns="http://www.w3.org/2000/svg">
<path fillRule="evenodd" clipRule="evenodd" d="M35 38V57H54H73V38V19H54H35V38ZM43.4029 38.1261L43.3908 39.6823H45.8638H48.3369V46.7093V53.7363H50.0861H51.8353V46.7093V39.6823H54.3083H56.7813V38.1563C56.7813 37.3118 56.7632 36.6061 56.7391 36.588C56.721 36.5639 53.7111 36.5518 50.0619 36.5579L43.421 36.576L43.4029 38.1261ZM68.0382 37.9008C67.3626 37.2012 66.6267 36.7729 65.6617 36.5316C65.0042 36.3688 63.448 36.3205 62.7785 36.4472C60.7156 36.8392 59.2861 38.1602 58.882 40.0542C58.7674 40.597 58.8036 41.9421 58.9483 42.4789C59.1233 43.1243 59.5455 43.8964 59.9918 44.3789C60.7639 45.2113 61.6083 45.7361 63.5687 46.5805C65.2817 47.3224 65.8848 47.6783 66.1804 48.1005C66.4096 48.4323 66.4639 48.6253 66.4639 49.0656C66.4639 49.5542 66.3191 49.8859 65.9693 50.2056C65.149 50.9415 63.4842 51.0319 62.2718 50.3926C61.8496 50.1694 61.1499 49.4999 60.8302 49.0113L60.601 48.6735L59.5093 49.3069C58.9061 49.6567 58.2667 50.0246 58.0979 50.1212C57.9229 50.2237 57.7661 50.3202 57.748 50.3443C57.7058 50.4167 58.3874 51.424 58.7372 51.81C59.6299 52.7992 61.0775 53.5532 62.6036 53.8246C63.3033 53.9513 64.8474 53.9694 65.4988 53.8548C67.6039 53.4989 69.0998 52.4253 69.7029 50.845C70.2518 49.3913 70.0709 47.437 69.2626 46.2126C68.5388 45.1148 67.3747 44.3427 64.6544 43.1726C63.1766 42.5332 62.7061 42.2196 62.4528 41.6948C62.3321 41.4535 62.2899 41.2786 62.2899 40.9831C62.2839 39.9758 63.0258 39.3726 64.1779 39.451C64.962 39.5053 65.4747 39.8129 65.9633 40.5246C66.1261 40.7659 66.2709 40.9227 66.3071 40.8986C67.3083 40.2773 68.961 39.1675 68.949 39.1192C68.9067 38.9564 68.388 38.2748 68.0382 37.9008Z" fill="#424242"/>
</svg>
