<svg width="75" height="75" viewBox="0 0 75 75" fill="none" xmlns="http://www.w3.org/2000/svg">
<path d="M72.861 23.2241L53.1315 58.5039C52.7242 59.2323 51.6776 59.2366 51.2642 58.5118L31.1435 23.2275C30.693 22.4376 31.3685 21.4808 32.2636 21.6408L52.0142 25.1711C52.1402 25.1937 52.2692 25.1934 52.3952 25.1705L71.7328 21.6459C72.6249 21.4833 73.3036 22.4327 72.861 23.2241Z" fill="#424242"/>
<path d="M61.4229 17.0104L46.8225 19.8712C46.5825 19.9183 46.4048 20.1216 46.3904 20.3657L45.4922 35.5344C45.4711 35.8917 45.7992 36.1689 46.1479 36.0885L50.2129 35.1504C50.5932 35.0627 50.9369 35.3977 50.8587 35.7801L49.651 41.694C49.5698 42.092 49.9434 42.4324 50.3321 42.3143L52.8428 41.5515C53.2321 41.4334 53.6061 41.7747 53.5237 42.173L51.6045 51.4624C51.4844 52.0434 52.2573 52.3603 52.5796 51.8621L52.7949 51.5294L64.6922 27.7864C64.8914 27.3888 64.5478 26.9355 64.1112 27.0198L59.927 27.8273C59.5338 27.9032 59.1992 27.537 59.3102 27.1523L62.0412 17.6851C62.1523 17.2997 61.8165 16.9332 61.4229 17.0104Z" fill="#A5A5A5"/>
</svg>
