<svg width="75" height="75" viewBox="0 0 75 75" fill="none" xmlns="http://www.w3.org/2000/svg">
<path d="M70.6437 51.2583L50.8439 62.4664V53.7454L63.1825 46.9625L70.6437 51.2583ZM72.0003 50.031V26.6136L64.7652 30.8126V45.8643L72.0003 50.031ZM29.3 51.2583L49.0997 62.4664V53.7454L36.7612 46.9625L29.3 51.2583ZM27.9434 50.031V26.6136L35.1785 30.8126V45.8643L27.9434 50.031ZM28.7832 25.0632L49.0997 13.5645V21.9947L36.0829 29.1653L35.986 29.2299L28.7832 25.0632ZM71.1605 25.0632L50.8439 13.5645V21.9947L63.8608 29.1653L63.9577 29.2299L71.1605 25.0632Z" fill="#A6A6A6"/>
<path d="M49.0989 51.7429L36.9219 45.0569V31.7816L49.0989 38.823V51.7429ZM50.8431 51.7429L63.0202 45.0569V31.7816L50.8431 38.823V51.7429ZM37.7294 30.2312L49.971 23.5129L62.2127 30.2312L49.971 37.3049L37.7294 30.2312Z" fill="#424242"/>
</svg>
