<svg width="75" height="75" viewBox="0 0 75 75" fill="none" xmlns="http://www.w3.org/2000/svg">
<path d="M33.056 37.4995C33.056 44.8 37.2986 51.1091 43.4506 54.0989L34.6528 29.9933C33.6295 32.2871 33.056 34.8256 33.056 37.4995ZM63.9502 36.5687C63.9502 34.2893 63.1315 32.7107 62.4292 31.482C61.4943 29.9627 60.618 28.6761 60.618 27.1568C60.618 25.4614 61.9039 23.8831 63.7151 23.8831C63.7969 23.8831 63.8744 23.8933 63.9541 23.8979C60.6728 20.8916 56.3011 19.0561 51.4995 19.0561C45.0562 19.0561 39.3874 22.3621 36.0896 27.3695C36.5223 27.3825 36.9301 27.3916 37.2765 27.3916C39.2056 27.3916 42.1918 27.1575 42.1918 27.1575C43.186 27.0989 43.3032 28.5593 42.31 28.6768C42.31 28.6768 41.3109 28.7944 40.1991 28.8527L46.9155 48.8307L50.9517 36.7253L48.0781 28.852C47.085 28.7937 46.1441 28.6761 46.1441 28.6761C45.1502 28.6179 45.2667 27.0982 46.2606 27.1568C46.2606 27.1568 49.3064 27.3909 51.1187 27.3909C53.0475 27.3909 56.034 27.1568 56.034 27.1568C57.0289 27.0982 57.1458 28.5586 56.1523 28.6761C56.1523 28.6761 55.151 28.7937 54.0414 28.852L60.7065 48.6788L62.5461 42.5311C63.3435 39.98 63.9502 38.1477 63.9502 36.5687ZM51.823 39.1128L46.2894 55.1932C47.9416 55.6789 49.689 55.9446 51.4995 55.9446C53.6472 55.9446 55.7069 55.5733 57.6241 54.8991C57.5746 54.8201 57.5297 54.7363 57.4929 54.645L51.823 39.1128ZM67.6829 28.6505C67.7622 29.238 67.8071 29.8687 67.8071 30.5471C67.8071 32.4187 67.4576 34.5227 66.4047 37.1534L60.771 53.4423C66.2542 50.2447 69.9422 44.3041 69.9422 37.4998C69.9426 34.2932 69.1235 31.2778 67.6829 28.6505ZM51.4995 16C39.645 16 30 25.6446 30 37.4995C30 49.3558 39.645 59 51.4995 59C63.3536 59 73 49.3558 73 37.4995C72.9996 25.6446 63.3536 16 51.4995 16ZM51.4995 58.0145C40.1886 58.0145 30.9858 48.8114 30.9858 37.4995C30.9858 26.1882 40.1882 16.9858 51.4995 16.9858C62.81 16.9858 72.0121 26.1882 72.0121 37.4995C72.0121 48.8114 62.81 58.0145 51.4995 58.0145Z" fill="#424242"/>
</svg>
