<svg width="200" height="36" viewBox="0 0 200 36" fill="none" xmlns="http://www.w3.org/2000/svg">
<g clip-path="url(#clip0_26_37244)">
<path d="M78.1833 11.01C76.7159 9.33601 74.4792 8.40601 71.9111 8.40601C66.704 8.40601 63.1123 12.348 63.1123 18C63.1123 23.652 66.704 27.594 71.9111 27.594C74.4792 27.594 76.6804 26.664 78.1833 24.954L78.5147 27.186H82.7336V8.81401H78.5147L78.1833 11.01ZM72.8993 23.28C69.9999 23.28 67.9466 21.084 67.9466 18C67.9466 14.916 69.9999 12.72 72.8993 12.72C75.7987 12.72 77.8875 14.916 77.8875 18C77.8875 21.084 75.8342 23.28 72.8993 23.28Z" fill="white"/>
<path d="M97.9052 8.442C95.5206 8.442 93.3963 9.336 91.9644 10.932L91.633 8.814H87.4141V27.18H92.2898V17.55C92.2898 14.724 94.0472 12.756 96.6922 12.756C99.1123 12.756 100.615 14.394 100.615 17.22V27.186H105.491V16.926C105.491 11.718 102.521 8.448 97.8993 8.448L97.9052 8.442Z" fill="white"/>
<path d="M116.532 7.74C116.532 5.658 117.556 4.656 119.248 4.656C119.799 4.656 120.42 4.77 121.189 5.028L122.692 1.572C121.444 0.900003 120.124 0.606003 118.769 0.606003C114.881 0.606003 111.657 2.874 111.657 7.782V8.82H108.319V12.912H111.657V27.186H116.532V12.912H124.633V27.186H129.509V8.814H116.526V7.734L116.532 7.74Z" fill="white"/>
<path d="M127.094 0.786003C125.373 0.786003 124.124 1.974 124.124 3.684C124.124 5.394 125.373 6.51 127.094 6.51C128.816 6.51 130.1 5.322 130.1 3.684C130.1 2.046 128.852 0.786003 127.094 0.786003Z" fill="white"/>
<path d="M144.728 8.442C142.343 8.442 140.219 9.336 138.787 10.932L138.456 8.814H134.237V27.18H139.112V17.55C139.112 14.724 140.87 12.756 143.515 12.756C145.935 12.756 147.438 14.394 147.438 17.22V27.186H152.313V16.926C152.313 11.718 149.343 8.448 144.722 8.448L144.728 8.442Z" fill="white"/>
<path d="M159.213 6.51C160.935 6.51 162.219 5.322 162.219 3.684C162.219 2.046 160.935 0.786003 159.213 0.786003C157.491 0.786003 156.242 1.974 156.242 3.684C156.242 5.394 157.491 6.51 159.213 6.51Z" fill="white"/>
<path d="M175.349 23.208C173.882 23.208 173.041 22.35 173.041 20.682V12.876H177.917V8.826H173.041V3.612L168.201 4.134V8.82H156.763V27.186H161.639V12.87H168.201V20.676C168.201 25.47 170.657 27.48 174.361 27.48C175.976 27.48 177.296 27.222 178.799 26.514L177.515 22.686C176.893 22.986 176.047 23.208 175.349 23.208Z" fill="white"/>
<path d="M194.379 8.814L191.479 15.99L189.39 21.606L187.485 15.99L184.805 8.814H179.562L186.674 26.958L183.083 35.4H188.325L199.657 8.814H194.379Z" fill="white"/>
<path d="M25.935 11.226L37.6628 31.824H31.7161C29.367 31.824 27.1954 30.552 26.0238 28.488L18.5267 15.324C17.0889 12.798 13.8877 11.928 11.3966 13.386C8.90545 14.844 8.04746 18.09 9.48533 20.616C10.9232 23.142 14.1244 24.012 16.6155 22.554C17.4143 22.086 18.077 21.414 18.5327 20.604L22.9705 28.404C22.3078 28.986 21.5978 29.514 20.8344 29.964C18.7575 31.182 16.3966 31.824 14.006 31.824C13.9765 31.824 13.9469 31.824 13.9232 31.824C9.08888 31.788 4.58592 29.136 2.17763 24.894C0.35515 21.696 -0.130057 17.964 0.816688 14.388C1.76343 10.812 4.02379 7.83 7.18355 5.976C13.6688 2.184 22.0179 4.422 25.7989 10.974L25.9409 11.22L25.935 11.226ZM47.6333 11.052C45.225 6.81 40.722 4.158 35.8877 4.122C33.4794 4.104 31.083 4.752 28.9765 5.982C28.2131 6.426 27.5031 6.954 26.8463 7.53L31.2841 15.324C31.7338 14.526 32.3966 13.854 33.1895 13.392C34.3966 12.684 35.8049 12.498 37.154 12.864C38.5031 13.23 39.6273 14.106 40.3196 15.33L47.8167 28.494C48.9883 30.558 51.1599 31.83 53.509 31.83H59.4617L47.6333 11.058V11.052Z" fill="white"/>
</g>
<defs>
<clipPath id="clip0_26_37244">
<rect width="200" height="36" fill="white"/>
</clipPath>
</defs>
</svg>
