<svg width="200" height="36" viewBox="0 0 200 36" fill="none" xmlns="http://www.w3.org/2000/svg">
<g clip-path="url(#clip0_1_74709)">
<path d="M78.1834 11.01C76.716 9.33601 74.4793 8.40601 71.9112 8.40601C66.7041 8.40601 63.1124 12.348 63.1124 18C63.1124 23.652 66.7041 27.594 71.9112 27.594C74.4793 27.594 76.6805 26.664 78.1834 24.954L78.5148 27.186H82.7337V8.81401H78.5148L78.1834 11.01ZM72.8994 23.28C70 23.28 67.9467 21.084 67.9467 18C67.9467 14.916 70 12.72 72.8994 12.72C75.7988 12.72 77.8876 14.916 77.8876 18C77.8876 21.084 75.8343 23.28 72.8994 23.28Z" fill="white"/>
<path d="M97.9053 8.442C95.5207 8.442 93.3964 9.336 91.9645 10.932L91.6331 8.814H87.4142V27.18H92.2899V17.55C92.2899 14.724 94.0473 12.756 96.6923 12.756C99.1124 12.756 100.615 14.394 100.615 17.22V27.186H105.491V16.926C105.491 11.718 102.521 8.448 97.8994 8.448L97.9053 8.442Z" fill="white"/>
<path d="M116.533 7.74C116.533 5.658 117.556 4.656 119.249 4.656C119.799 4.656 120.42 4.77 121.189 5.028L122.692 1.572C121.444 0.900003 120.124 0.606003 118.769 0.606003C114.882 0.606003 111.657 2.874 111.657 7.782V8.82H108.32V12.912H111.657V27.186H116.533V12.912H124.633V27.186H129.509V8.814H116.527V7.734L116.533 7.74Z" fill="white"/>
<path d="M127.095 0.786003C125.373 0.786003 124.124 1.974 124.124 3.684C124.124 5.394 125.373 6.51 127.095 6.51C128.817 6.51 130.101 5.322 130.101 3.684C130.101 2.046 128.852 0.786003 127.095 0.786003Z" fill="white"/>
<path d="M144.728 8.442C142.343 8.442 140.219 9.336 138.787 10.932L138.456 8.814H134.237V27.18H139.112V17.55C139.112 14.724 140.87 12.756 143.515 12.756C145.935 12.756 147.438 14.394 147.438 17.22V27.186H152.314V16.926C152.314 11.718 149.343 8.448 144.722 8.448L144.728 8.442Z" fill="white"/>
<path d="M159.213 6.51C160.935 6.51 162.219 5.322 162.219 3.684C162.219 2.046 160.935 0.786003 159.213 0.786003C157.491 0.786003 156.243 1.974 156.243 3.684C156.243 5.394 157.491 6.51 159.213 6.51Z" fill="white"/>
<path d="M175.349 23.208C173.882 23.208 173.041 22.35 173.041 20.682V12.876H177.917V8.826H173.041V3.612L168.201 4.134V8.82H156.763V27.186H161.639V12.87H168.201V20.676C168.201 25.47 170.657 27.48 174.361 27.48C175.976 27.48 177.296 27.222 178.799 26.514L177.515 22.686C176.893 22.986 176.047 23.208 175.349 23.208Z" fill="white"/>
<path d="M194.379 8.814L191.479 15.99L189.391 21.606L187.485 15.99L184.805 8.814H179.562L186.675 26.958L183.083 35.4H188.325L199.657 8.814H194.379Z" fill="white"/>
<path d="M25.9349 11.226L37.6627 31.824H31.716C29.3669 31.824 27.1953 30.552 26.0237 28.488L18.5266 15.324C17.0888 12.798 13.8876 11.928 11.3964 13.386C8.90532 14.844 8.04734 18.09 9.48521 20.616C10.9231 23.142 14.1243 24.012 16.6154 22.554C17.4142 22.086 18.0769 21.414 18.5325 20.604L22.9704 28.404C22.3077 28.986 21.5976 29.514 20.8343 29.964C18.7574 31.182 16.3964 31.824 14.0059 31.824C13.9763 31.824 13.9467 31.824 13.9231 31.824C9.08876 31.788 4.5858 29.136 2.17751 24.894C0.355028 21.696 -0.130179 17.964 0.816566 14.388C1.76331 10.812 4.02367 7.83 7.18343 5.976C13.6686 2.184 22.0177 4.422 25.7988 10.974L25.9408 11.22L25.9349 11.226ZM47.6331 11.052C45.2248 6.81 40.7219 4.158 35.8876 4.122C33.4793 4.104 31.0828 4.752 28.9763 5.982C28.213 6.426 27.503 6.954 26.8462 7.53L31.284 15.324C31.7337 14.526 32.3965 13.854 33.1894 13.392C34.3965 12.684 35.8047 12.498 37.1538 12.864C38.503 13.23 39.6272 14.106 40.3195 15.33L47.8166 28.494C48.9882 30.558 51.1598 31.83 53.5089 31.83H59.4615L47.6331 11.058V11.052Z" fill="black"/>
</g>
<defs>
<clipPath id="clip0_1_74709">
<rect width="200" height="36" fill="white"/>
</clipPath>
</defs>
</svg>
