<svg width="233" height="233" viewBox="0 0 233 233" fill="none" xmlns="http://www.w3.org/2000/svg">
<path d="M39.63 163.71H118.84C141.95 150.11 157.48 124.99 157.48 96.24C157.48 53.03 122.45 18 79.24 18C36.03 18 1 53.03 1 96.24C1 125 16.52 150.11 39.64 163.71H39.63Z" stroke="black" stroke-miterlimit="10"/>
<path d="M43.8699 163.71H114.61C135.25 151.57 149.12 129.13 149.12 103.45C149.12 64.8599 117.83 33.5699 79.2399 33.5699C40.6499 33.5699 9.35986 64.8599 9.35986 103.45C9.35986 129.13 23.2199 151.56 43.8699 163.71Z" stroke="black" stroke-miterlimit="10"/>
<path d="M48.1 163.71H110.37C128.54 153.02 140.75 133.27 140.75 110.67C140.75 76.6999 113.21 49.1599 79.24 49.1599C45.27 49.1599 17.73 76.6999 17.73 110.67C17.73 133.28 29.93 153.02 48.11 163.71H48.1Z" stroke="black" stroke-miterlimit="10"/>
<path d="M52.3301 163.71H106.13C121.83 154.47 132.38 137.41 132.38 117.88C132.38 88.53 108.59 64.73 79.2301 64.73C49.8701 64.73 26.0801 88.52 26.0801 117.88C26.0801 137.41 36.6201 154.47 52.3301 163.71Z" stroke="black" stroke-miterlimit="10"/>
<path d="M56.5699 163.71H101.91C115.14 155.93 124.02 141.55 124.02 125.09C124.02 100.36 103.97 80.3099 79.24 80.3099C54.51 80.3099 34.46 100.36 34.46 125.09C34.46 141.55 43.3399 155.92 56.5699 163.71Z" stroke="black" stroke-miterlimit="10"/>
<path d="M60.8 163.71H97.67C108.43 157.38 115.65 145.69 115.65 132.31C115.65 112.2 99.35 95.8899 79.23 95.8899C59.11 95.8899 42.8101 112.19 42.8101 132.31C42.8101 145.69 50.04 157.38 60.79 163.71H60.8Z" stroke="black" stroke-miterlimit="10"/>
<path d="M65.0399 163.71H93.4399C101.73 158.84 107.29 149.83 107.29 139.52C107.29 124.03 94.7299 111.47 79.2399 111.47C63.7499 111.47 51.1899 124.03 51.1899 139.52C51.1899 149.83 56.7599 158.83 65.0399 163.71Z" stroke="black" stroke-miterlimit="10"/>
<path d="M69.27 163.71H89.2C95.02 160.29 98.92 153.97 98.92 146.73C98.92 135.86 90.11 127.04 79.23 127.04C68.35 127.04 59.54 135.85 59.54 146.73C59.54 153.96 63.45 160.28 69.26 163.71H69.27Z" stroke="black" stroke-miterlimit="10"/>
<path d="M39.7197 163.71H118.75V191.57C118.75 198.74 112.93 204.55 105.77 204.55H52.7097C45.5397 204.55 39.7297 198.73 39.7297 191.57V163.71H39.7197Z" stroke="black" stroke-miterlimit="10"/>
<path d="M70.6001 204.56H87.8701V204.85C87.8701 209.62 84.0001 213.48 79.2401 213.48C74.4701 213.48 70.6101 209.61 70.6101 204.85V204.56H70.6001Z" fill="black" stroke="black" stroke-miterlimit="10"/>
<path d="M36 176.37L121.87 168.66" stroke="black" stroke-miterlimit="10"/>
<path d="M36.6001 183.34L122.48 175.63" stroke="black" stroke-miterlimit="10"/>
<path d="M36.6001 190.3L122.48 182.6" stroke="black" stroke-miterlimit="10"/>
<path d="M36.6001 197.27L122.48 189.56" stroke="black" stroke-miterlimit="10"/>
<path d="M60.7101 163.71H97.7501C108.56 157.35 115.82 145.6 115.82 132.16C115.82 111.95 99.4401 95.5699 79.2301 95.5699C59.0201 95.5699 42.6401 111.95 42.6401 132.16C42.6401 145.61 49.9001 157.36 60.7101 163.71Z" fill="black" stroke="black" stroke-miterlimit="10"/>
<path d="M99.46 116.14L73.92 153.18L57.21 138.91" stroke="white" stroke-miterlimit="10"/>
</svg> 