<svg width="233" height="233" viewBox="0 0 233 233" fill="none" xmlns="http://www.w3.org/2000/svg">
<g clip-path="url(#clip0_90_151)">
<path d="M90.62 165.01L48.71 123.1L132.05 32.52C134.09 30.48 136.69 29.1 139.53 28.56L175.11 21.76C185.09 19.85 193.85 28.61 191.95 38.6L185.15 74.19C184.61 77.02 183.23 79.63 181.19 81.67L90.62 165.01Z" stroke="black" stroke-miterlimit="10"/>
<path d="M87.45 161.84L51.88 126.27L122.16 50.2C123.88 48.48 126.07 47.32 128.45 46.87L158.4 41.15C166.8 39.55 174.17 46.92 172.57 55.32L166.85 85.27C166.39 87.65 165.23 89.85 163.52 91.56L87.45 161.84Z" stroke="black" stroke-miterlimit="10"/>
<path d="M84.28 158.66L55.05 129.43L112.27 67.8701C113.66 66.4801 115.44 65.5301 117.38 65.1701L141.69 60.5301C148.51 59.2301 154.49 65.2101 153.19 72.0301L148.55 96.3401C148.18 98.2701 147.24 100.05 145.85 101.45L84.29 158.67L84.28 158.66Z" stroke="black" stroke-miterlimit="10"/>
<path d="M81.1 155.49L58.22 132.61L102.39 85.5499C103.46 84.4799 104.83 83.7599 106.31 83.4699L124.98 79.8999C130.22 78.8999 134.81 83.4999 133.81 88.7299L130.24 107.4C129.96 108.89 129.23 110.25 128.16 111.32L81.1 155.49Z" stroke="black" stroke-miterlimit="10"/>
<path d="M77.93 152.32L61.39 135.78L92.5 103.23C93.25 102.48 94.2 101.98 95.24 101.78L108.27 99.29C111.92 98.59 115.13 101.8 114.43 105.45L111.94 118.48C111.74 119.52 111.24 120.47 110.49 121.22L77.94 152.33L77.93 152.32Z" stroke="black" stroke-miterlimit="10"/>
<path d="M74.76 149.15L64.56 138.95L82.61 120.9C83.03 120.48 83.57 120.19 84.16 120.08L91.55 118.67C93.62 118.27 95.44 120.09 95.04 122.16L93.63 129.55C93.52 130.14 93.23 130.68 92.81 131.1L74.76 149.15Z" stroke="black" stroke-miterlimit="10"/>
<path d="M45.88 126.06L8.14996 115.61L37.95 85.8099C45.64 78.1199 56.84 75.1199 67.34 77.9399L85.66 82.8499L45.89 126.07L45.88 126.06Z" fill="black" stroke="black" stroke-miterlimit="10"/>
<path d="M87.65 167.84L98.1 205.57L127.9 175.77C135.59 168.08 138.59 156.88 135.77 146.38L130.86 128.06L87.64 167.83L87.65 167.84Z" fill="black" stroke="black" stroke-miterlimit="10"/>
<path d="M45.88 126.06L87.65 167.84" stroke="black" stroke-miterlimit="10"/>
<path d="M75.01 171.53L42.18 138.7L51.67 131.85L81.86 162.05L75.01 171.53Z" stroke="black" stroke-miterlimit="10"/>
<path d="M1.28998 172.29L45.13 141.65L72.31 168.83L41.67 212.67" stroke="black" stroke-miterlimit="10"/>
<path d="M46.68 192.57L66.99 163.51L50.45 146.97L21.38 167.28" stroke="black" stroke-miterlimit="10"/>
<path d="M51.72 172.92L61.87 158.39L55.56 152.09L41.03 162.24" stroke="black" stroke-miterlimit="10"/>
</g>
<defs>
<clipPath id="clip0_90_151">
<rect width="191.71" height="191.96" fill="white" transform="translate(1 21)"/>
</clipPath>
</defs>
</svg>
