<svg width="233" height="233" viewBox="0 0 233 233" fill="none" xmlns="http://www.w3.org/2000/svg">
<path d="M42.8599 183.199H18.96V159.289" stroke="black" stroke-miterlimit="10"/>
<path d="M42.8599 183.199H18.96V159.289" stroke="black" stroke-miterlimit="10"/>
<path d="M9.97998 42.6294V192.179H159.53" stroke="black" stroke-miterlimit="10"/>
<path d="M18.96 51.6094V159.289" stroke="black" stroke-miterlimit="10"/>
<path d="M42.8701 183.199H150.55" stroke="black" stroke-miterlimit="10"/>
<path d="M27.9399 60.5894V150.309" stroke="black" stroke-miterlimit="10"/>
<path d="M51.8501 174.219H141.57" stroke="black" stroke-miterlimit="10"/>
<path d="M36.9199 69.5693V141.329" stroke="black" stroke-miterlimit="10"/>
<path d="M60.8301 165.239H132.59" stroke="black" stroke-miterlimit="10"/>
<path d="M45.8999 78.5493V132.349" stroke="black" stroke-miterlimit="10"/>
<path d="M69.8101 156.259H123.61" stroke="black" stroke-miterlimit="10"/>
<path d="M54.8799 87.5293V123.369" stroke="black" stroke-miterlimit="10"/>
<path d="M78.79 147.279H114.63" stroke="black" stroke-miterlimit="10"/>
<path d="M63.8599 96.5093V114.389" stroke="black" stroke-miterlimit="10"/>
<path d="M87.77 138.299H105.65" stroke="black" stroke-miterlimit="10"/>
<path d="M42.8599 183.199L41.2299 176.869L34.9 175.229L33.2599 168.909L26.9299 167.269L25.2899 160.929L18.96 159.289" stroke="black" stroke-miterlimit="10"/>
<path d="M161.196 40.9571C167.794 47.5544 167.794 58.26 161.196 64.8573L152.011 74.0427L128.104 50.1354L137.289 40.9501C143.886 34.3528 154.592 34.3528 161.189 40.9501L161.196 40.9571Z" fill="black" stroke="black" stroke-miterlimit="10"/>
<path d="M18.96 159.289V183.199H42.8599L152.02 74.0492L128.11 50.1392L18.96 159.289Z" stroke="black" stroke-miterlimit="10"/>
<path d="M133.43 68.7295L33.2598 168.899" stroke="black" stroke-miterlimit="10"/>
<path d="M18.96 159.289V183.199H42.8599L41.2299 176.869L34.9 175.229L33.2599 168.909L26.9299 167.269L25.2899 160.929L18.96 159.289Z" fill="black"/>
<path d="M121.47 56.7793L145.38 80.6793" stroke="black" stroke-miterlimit="10"/>
<path d="M145.439 80.7319C146.613 81.9057 146.613 83.8149 145.439 84.9887L109.497 120.931C108.91 121.518 107.949 121.518 107.362 120.931C106.775 120.344 106.775 119.382 107.362 118.795L145.439 80.7178L145.439 80.7319Z" fill="black" stroke="black" stroke-miterlimit="10"/>
<path d="M72.8 105.449L1 33.6494V201.159H168.51L96.71 129.359" stroke="black" stroke-miterlimit="10"/>
</svg> 