<svg width="233" height="233" viewBox="0 0 233 233" fill="none" xmlns="http://www.w3.org/2000/svg">
<path d="M74.87 20H14C6.8203 20 1 25.8203 1 33V177.76C1 184.94 6.8203 190.76 14 190.76H74.87C82.0497 190.76 87.87 184.94 87.87 177.76V33C87.87 25.8203 82.0497 20 74.87 20Z" stroke="black" stroke-miterlimit="10"/>
<path d="M75.59 38.52H20.22C13.4324 38.52 7.92999 44.0224 7.92999 50.81V178.47C7.92999 185.258 13.4324 190.76 20.22 190.76H75.59C82.3776 190.76 87.88 185.258 87.88 178.47V50.81C87.88 44.0224 82.3776 38.52 75.59 38.52Z" stroke="black" stroke-miterlimit="10"/>
<path d="M76.3 57.04H26.42C20.03 57.04 14.85 62.2201 14.85 68.61V179.18C14.85 185.57 20.03 190.75 26.42 190.75H76.3C82.6899 190.75 87.87 185.57 87.87 179.18V68.61C87.87 62.2201 82.6899 57.04 76.3 57.04Z" stroke="black" stroke-miterlimit="10"/>
<path d="M77.02 75.5699H32.64C26.6422 75.5699 21.78 80.4321 21.78 86.4299V179.9C21.78 185.898 26.6422 190.76 32.64 190.76H77.02C83.0178 190.76 87.88 185.898 87.88 179.9V86.4299C87.88 80.4321 83.0178 75.5699 77.02 75.5699Z" stroke="black" stroke-miterlimit="10"/>
<path d="M77.73 94.09H38.84C33.2398 94.09 28.7 98.6298 28.7 104.23V180.62C28.7 186.22 33.2398 190.76 38.84 190.76H77.73C83.3302 190.76 87.87 186.22 87.87 180.62V104.23C87.87 98.6298 83.3302 94.09 77.73 94.09Z" stroke="black" stroke-miterlimit="10"/>
<path d="M78.44 112.61H45.06C39.852 112.61 35.63 116.832 35.63 122.04V181.33C35.63 186.538 39.852 190.76 45.06 190.76H78.44C83.6481 190.76 87.87 186.538 87.87 181.33V122.04C87.87 116.832 83.6481 112.61 78.44 112.61Z" stroke="black" stroke-miterlimit="10"/>
<path d="M79.16 131.13H51.26C46.4496 131.13 42.55 135.03 42.55 139.84V182.05C42.55 186.86 46.4496 190.76 51.26 190.76H79.16C83.9704 190.76 87.87 186.86 87.87 182.05V139.84C87.87 135.03 83.9704 131.13 79.16 131.13Z" stroke="black" stroke-miterlimit="10"/>
<path d="M79.87 149.66H57.48C53.0617 149.66 49.48 153.242 49.48 157.66V182.76C49.48 187.178 53.0617 190.76 57.48 190.76H79.87C84.2883 190.76 87.87 187.178 87.87 182.76V157.66C87.87 153.242 84.2883 149.66 79.87 149.66Z" stroke="black" stroke-miterlimit="10"/>
<path d="M42.46 139.46L42.46 204.66C42.46 209.631 46.4895 213.66 51.46 213.66H91.53C96.5006 213.66 100.53 209.631 100.53 204.66V139.46C100.53 134.489 96.5006 130.46 91.53 130.46H51.46C46.4895 130.46 42.46 134.489 42.46 139.46Z" fill="black" stroke="black" stroke-miterlimit="10"/>
<path d="M50.17 140.17C50.9101 140.17 51.51 139.57 51.51 138.83C51.51 138.09 50.9101 137.49 50.17 137.49C49.43 137.49 48.83 138.09 48.83 138.83C48.83 139.57 49.43 140.17 50.17 140.17Z" stroke="white" stroke-miterlimit="10"/>
<path d="M56.31 140.17C57.05 140.17 57.65 139.57 57.65 138.83C57.65 138.09 57.05 137.49 56.31 137.49C55.5699 137.49 54.97 138.09 54.97 138.83C54.97 139.57 55.5699 140.17 56.31 140.17Z" stroke="white" stroke-miterlimit="10"/>
<path d="M62.44 140.17C63.18 140.17 63.78 139.57 63.78 138.83C63.78 138.09 63.18 137.49 62.44 137.49C61.6999 137.49 61.1 138.09 61.1 138.83C61.1 139.57 61.6999 140.17 62.44 140.17Z" stroke="white" stroke-miterlimit="10"/>
<path d="M61.92 182.71L50.73 172.06L61.92 161.41" stroke="white" stroke-miterlimit="10"/>
<path d="M81.06 161.36L92.25 172.01L81.06 182.67" stroke="white" stroke-miterlimit="10"/>
<path d="M67.46 157.97L75.51 186.16" stroke="white" stroke-miterlimit="10"/>
</svg>
