<svg width="233" height="233" viewBox="0 0 233 233" fill="none" xmlns="http://www.w3.org/2000/svg">
<g clip-path="url(#clip0_90_105)">
<path d="M39.14 164.22H118.35C141.46 150.62 156.99 125.5 156.99 96.75C156.99 53.53 121.96 18.5 78.74 18.5C35.52 18.5 0.5 53.53 0.5 96.74C0.5 125.5 16.02 150.61 39.14 164.21V164.22Z" stroke="black" stroke-miterlimit="10"/>
<path d="M43.37 164.22H114.11C134.75 152.08 148.62 129.64 148.62 103.96C148.62 65.3701 117.33 34.0801 78.74 34.0801C40.15 34.0801 8.87 65.3701 8.87 103.96C8.87 129.64 22.73 152.07 43.38 164.22H43.37Z" stroke="black" stroke-miterlimit="10"/>
<path d="M47.61 164.22H109.88C128.05 153.53 140.26 133.78 140.26 111.18C140.26 77.2099 112.72 49.6699 78.75 49.6699C44.78 49.6699 17.24 77.2099 17.24 111.18C17.24 133.79 29.44 153.53 47.62 164.22H47.61Z" stroke="black" stroke-miterlimit="10"/>
<path d="M51.84 164.22H105.64C121.34 154.98 131.89 137.92 131.89 118.39C131.89 89.04 108.1 65.24 78.74 65.24C49.38 65.24 25.59 89.03 25.59 118.39C25.59 137.92 36.13 154.98 51.84 164.22Z" stroke="black" stroke-miterlimit="10"/>
<path d="M56.08 164.22H101.42C114.65 156.44 123.53 142.06 123.53 125.6C123.53 100.87 103.48 80.8201 78.75 80.8201C54.02 80.8201 33.97 100.87 33.97 125.6C33.97 142.06 42.85 156.43 56.08 164.22Z" stroke="black" stroke-miterlimit="10"/>
<path d="M60.31 164.22H97.18C107.94 157.89 115.16 146.2 115.16 132.82C115.16 112.71 98.86 96.3999 78.74 96.3999C58.62 96.3999 42.32 112.7 42.32 132.82C42.32 146.2 49.55 157.89 60.3 164.22H60.31Z" stroke="black" stroke-miterlimit="10"/>
<path d="M64.55 164.22H92.95C101.24 159.35 106.8 150.34 106.8 140.03C106.8 124.54 94.24 111.98 78.75 111.98C63.26 111.98 50.7 124.54 50.7 140.03C50.7 150.34 56.27 159.34 64.55 164.22Z" stroke="black" stroke-miterlimit="10"/>
<path d="M68.78 164.22H88.71C94.53 160.8 98.43 154.48 98.43 147.24C98.43 136.37 89.62 127.55 78.74 127.55C67.86 127.55 59.05 136.36 59.05 147.24C59.05 154.47 62.96 160.79 68.77 164.22H68.78Z" stroke="black" stroke-miterlimit="10"/>
<path d="M39.23 164.22H118.26V192.08C118.26 199.25 112.44 205.06 105.28 205.06H52.22C45.05 205.06 39.24 199.24 39.24 192.08V164.22H39.23Z" stroke="black" stroke-miterlimit="10"/>
<path d="M70.11 205.06H87.38V205.35C87.38 210.12 83.51 213.98 78.75 213.98C73.98 213.98 70.12 210.11 70.12 205.35V205.06H70.11Z" fill="black" stroke="black" stroke-miterlimit="10"/>
<path d="M35.5 176.87L121.38 169.16" stroke="black" stroke-miterlimit="10"/>
<path d="M36.11 183.84L121.98 176.13" stroke="black" stroke-miterlimit="10"/>
<path d="M36.11 190.81L121.98 183.1" stroke="black" stroke-miterlimit="10"/>
<path d="M36.11 197.77L121.98 190.07" stroke="black" stroke-miterlimit="10"/>
<path d="M60.22 164.22H97.26C108.07 157.86 115.33 146.11 115.33 132.67C115.33 112.46 98.95 96.0801 78.74 96.0801C58.53 96.0801 42.15 112.46 42.15 132.67C42.15 146.12 49.41 157.87 60.22 164.22Z" fill="black" stroke="black" stroke-miterlimit="10"/>
<path d="M98.96 116.64L73.43 153.68L56.72 139.42" stroke="white" stroke-miterlimit="10"/>
</g>
<defs>
<clipPath id="clip0_90_105">
<rect width="157.49" height="196.49" fill="white" transform="translate(0 18)"/>
</clipPath>
</defs>
</svg>
