<svg width="550" height="550" viewBox="0 0 550 550" fill="none" xmlns="http://www.w3.org/2000/svg">
<path d="M455.652 327.002H337.083C326.654 327.002 318.199 335.457 318.199 345.886V415.333C318.199 425.762 326.654 434.217 337.083 434.217H455.652C466.081 434.217 474.536 425.762 474.536 415.333V345.886C474.536 335.457 466.081 327.002 455.652 327.002Z" stroke="black" stroke-miterlimit="10"/>
<path d="M454.237 296.74H303.282C292.045 296.74 282.935 305.85 282.935 317.088V413.846C282.935 425.083 292.045 434.193 303.282 434.193H454.237C465.475 434.193 474.585 425.083 474.585 413.846V317.088C474.585 305.85 465.475 296.74 454.237 296.74Z" stroke="black" stroke-miterlimit="10"/>
<path d="M452.773 266.502H269.503C257.444 266.502 247.668 276.278 247.668 288.337V412.382C247.668 424.441 257.444 434.217 269.503 434.217H452.773C464.832 434.217 474.608 424.441 474.608 412.382V288.337C474.608 276.278 464.832 266.502 452.773 266.502Z" stroke="black" stroke-miterlimit="10"/>
<path d="M451.332 236.24H235.675C222.808 236.24 212.377 246.671 212.377 259.539V410.895C212.377 423.762 222.808 434.193 235.675 434.193H451.332C464.199 434.193 474.63 423.762 474.63 410.895V259.539C474.63 246.671 464.199 236.24 451.332 236.24Z" stroke="black" stroke-miterlimit="10"/>
<path d="M449.871 205.979H201.899C188.21 205.979 177.113 217.075 177.113 230.764V409.408C177.113 423.096 188.21 434.193 201.899 434.193H449.871C463.559 434.193 474.656 423.096 474.656 409.408V230.764C474.656 217.075 463.559 205.979 449.871 205.979Z" stroke="black" stroke-miterlimit="10"/>
<path d="M448.406 175.74H168.071C153.574 175.74 141.822 187.493 141.822 201.989V407.944C141.822 422.441 153.574 434.193 168.071 434.193H448.406C462.903 434.193 474.655 422.441 474.655 407.944V201.989C474.655 187.493 462.903 175.74 448.406 175.74Z" stroke="black" stroke-miterlimit="10"/>
<path d="M446.965 145.479H134.291C118.973 145.479 106.555 157.896 106.555 173.215V406.457C106.555 421.775 118.973 434.193 134.291 434.193H446.965C462.283 434.193 474.701 421.775 474.701 406.457V173.215C474.701 157.896 462.283 145.479 446.965 145.479Z" stroke="black" stroke-miterlimit="10"/>
<path d="M445.501 115.24H100.464C84.3377 115.24 71.2646 128.314 71.2646 144.44V404.994C71.2646 421.12 84.3377 434.193 100.464 434.193H445.501C461.627 434.193 474.7 421.12 474.7 404.994V144.44C474.7 128.314 461.627 115.24 445.501 115.24Z" stroke="black" stroke-miterlimit="10"/>
<path d="M444.062 84.9785H66.6867C49.7389 84.9785 36 98.7174 36 115.665V403.506C36 420.454 49.7389 434.193 66.6867 434.193H444.062C461.01 434.193 474.749 420.454 474.749 403.506V115.665C474.749 98.7174 461.01 84.9785 444.062 84.9785Z" stroke="black" stroke-miterlimit="10"/>
<path d="M495.71 326.837H337.083C326.654 326.837 318.199 335.292 318.199 345.721V445.028C318.199 455.457 326.654 463.912 337.083 463.912H495.71C506.139 463.912 514.594 455.457 514.594 445.028V345.721C514.594 335.292 506.139 326.837 495.71 326.837Z" fill="black" stroke="black" stroke-miterlimit="10"/>
<path d="M337.132 344.895C338.879 344.895 340.295 343.479 340.295 341.732C340.295 339.985 338.879 338.569 337.132 338.569C335.385 338.569 333.969 339.985 333.969 341.732C333.969 343.479 335.385 344.895 337.132 344.895Z" stroke="white" stroke-miterlimit="10"/>
<path d="M351.602 344.895C353.348 344.895 354.765 343.479 354.765 341.732C354.765 339.985 353.348 338.569 351.602 338.569C349.855 338.569 348.438 339.985 348.438 341.732C348.438 343.479 349.855 344.895 351.602 344.895Z" stroke="white" stroke-miterlimit="10"/>
<path d="M366.095 344.895C367.842 344.895 369.258 343.479 369.258 341.732C369.258 339.985 367.842 338.569 366.095 338.569C364.348 338.569 362.932 339.985 362.932 341.732C362.932 343.479 364.348 344.895 366.095 344.895Z" stroke="white" stroke-miterlimit="10"/>
<path d="M388.26 426.687L355.331 395.339L388.26 364.015" stroke="white" stroke-miterlimit="10"/>
<path d="M444.558 363.873L477.487 395.221L444.558 426.545" stroke="white" stroke-miterlimit="10"/>
<path d="M404.548 353.912L428.247 436.837" stroke="white" stroke-miterlimit="10"/>
</svg>
